<svg width="12" height="10" viewBox="0 0 12 10" fill="none" xmlns="http://www.w3.org/2000/svg">
<path d="M7.7357 4.8354C7.7357 5.70953 7.02931 6.41592 6.15518 6.41592C5.28105 6.41592 4.57466 5.70953 4.57466 4.8354C4.57466 3.96127 5.28105 3.25488 6.15518 3.25488C7.02931 3.25488 7.7357 3.96127 7.7357 4.8354Z" stroke="black" stroke-linecap="round" stroke-linejoin="round"/>
<path d="M6.15514 8.66553C8.01488 8.66553 9.74818 7.7021 10.9546 6.0347C11.4288 5.38163 11.4288 4.28391 10.9546 3.63082C9.74818 1.9634 8.01488 1 6.15514 1C4.29538 1 2.56208 1.9634 1.35562 3.63082C0.881461 4.28391 0.881461 5.38163 1.35562 6.0347C2.56208 7.7021 4.29538 8.66553 6.15514 8.66553Z" stroke="black" stroke-linecap="round" stroke-linejoin="round"/>
</svg>
