<svg width="30" height="30" viewBox="0 0 30 30" fill="none" xmlns="http://www.w3.org/2000/svg">
<circle opacity="0.4" cx="15" cy="15" r="14.75" fill="white" stroke="black" stroke-width="0.5"/>
<path d="M16.1842 9.68421C16.1842 9.30633 15.8779 9 15.5 9C15.1221 9 14.8158 9.30633 14.8158 9.68421V14.8158H9.68421C9.30634 14.8158 9 15.1221 9 15.5C9 15.8779 9.30634 16.1842 9.68421 16.1842H14.8158V21.3158C14.8158 21.6937 15.1221 22 15.5 22C15.8779 22 16.1842 21.6937 16.1842 21.3158V16.1842H21.3158C21.6937 16.1842 22 15.8779 22 15.5C22 15.1221 21.6937 14.8158 21.3158 14.8158H16.1842V9.68421Z" fill="black"/>
</svg>
