<svg width="78" height="78" viewBox="0 0 78 78" fill="none" xmlns="http://www.w3.org/2000/svg">
<g filter="url(#filter0_d_305_4641)">
<circle cx="39" cy="37" r="35" fill="white" fill-opacity="0.6" shape-rendering="crispEdges"/>
</g>
<path fill-rule="evenodd" clip-rule="evenodd" d="M32.125 24.4C32.125 23.2408 33.1106 22.3 34.325 22.3C35.5394 22.3 36.525 23.2408 36.525 24.4C36.525 25.5592 35.5394 26.5 34.325 26.5C33.1106 26.5 32.125 25.5592 32.125 24.4ZM56.6 51.7C56.6 52.8592 55.6144 53.8 54.4 53.8H52.2V45.4C52.2 43.0795 50.231 41.2 47.8 41.2H30.2C27.769 41.2 25.8 43.0795 25.8 45.4V53.8H23.6C22.3856 53.8 21.4 52.8592 21.4 51.7V30.7924C21.4 30.5131 21.5166 30.2464 21.7212 30.0511L25.8 26.1577V28.6C25.8 30.9205 27.769 32.8 30.2 32.8H47.8C50.231 32.8 52.2 30.9205 52.2 28.6V20.2H54.4C55.6144 20.2 56.6 21.1408 56.6 22.3V51.7ZM47.8 53.8H30.2V47.5C30.2 46.3408 31.1856 45.4 32.4 45.4H45.6C46.8144 45.4 47.8 46.3408 47.8 47.5V53.8ZM30.2 21.9577L32.0414 20.2H47.8V26.5C47.8 27.6592 46.8144 28.6 45.6 28.6H32.4C31.1856 28.6 30.2 27.6592 30.2 26.5V21.9577ZM56.6 16H31.1108C30.5278 16 29.969 16.2205 29.5554 16.6153L17.6446 27.9847C17.231 28.3795 17 28.9129 17 29.4694V53.8C17 56.1205 18.969 58 21.4 58H56.6C59.031 58 61 56.1205 61 53.8V20.2C61 17.8795 59.031 16 56.6 16Z" fill="#CD5151"/>
<defs>
<filter id="filter0_d_305_4641" x="0" y="0" width="78" height="78" filterUnits="userSpaceOnUse" color-interpolation-filters="sRGB">
<feFlood flood-opacity="0" result="BackgroundImageFix"/>
<feColorMatrix in="SourceAlpha" type="matrix" values="0 0 0 0 0 0 0 0 0 0 0 0 0 0 0 0 0 0 127 0" result="hardAlpha"/>
<feOffset dy="2"/>
<feGaussianBlur stdDeviation="2"/>
<feComposite in2="hardAlpha" operator="out"/>
<feColorMatrix type="matrix" values="0 0 0 0 0 0 0 0 0 0 0 0 0 0 0 0 0 0 0.15 0"/>
<feBlend mode="normal" in2="BackgroundImageFix" result="effect1_dropShadow_305_4641"/>
<feBlend mode="normal" in="SourceGraphic" in2="effect1_dropShadow_305_4641" result="shape"/>
</filter>
</defs>
</svg>
