<svg width="78" height="78" viewBox="0 0 78 78" fill="none" xmlns="http://www.w3.org/2000/svg">
<g filter="url(#filter0_d_305_4646)">
<circle cx="39" cy="37" r="35" fill="white" fill-opacity="0.6" shape-rendering="crispEdges"/>
</g>
<path d="M18 50.1056C18 52.2936 18.7687 54.1563 20.3062 55.6938C21.8437 57.2313 23.7064 58 25.8944 58H52.1499C54.3083 58 56.1563 57.2313 57.6938 55.6938C59.2313 54.1563 60 52.2936 60 50.1056V38.7519L54.7666 43.1426V50.1056C54.7666 50.8448 54.5153 51.4657 54.0127 51.9683C53.51 52.471 52.8891 52.7371 52.1499 52.7666H25.8944C25.1552 52.7666 24.5343 52.5005 24.0317 51.9683C23.529 51.4361 23.2777 50.8152 23.2777 50.1056V23.8501C23.2777 23.1404 23.529 22.5195 24.0317 21.9873C24.5343 21.4551 25.1552 21.2038 25.8944 21.2334H39.0222V16H25.8944C23.7064 16 21.8437 16.7687 20.3062 18.3062C18.7687 19.8437 18 21.6917 18 23.8501L18 50.1056ZM25.8944 42.2555C25.8944 44.7983 26.397 47.2376 27.4023 49.5734C27.8754 46.8532 28.9102 44.3844 30.5069 42.1668C32.1035 39.9493 34.0845 38.1605 36.4498 36.8004C38.8152 35.4403 41.4171 34.6716 44.2555 34.4942V42.2555L60 29.1278L44.2555 16V23.8501C41.7719 23.8501 39.3918 24.3379 37.1151 25.3136C34.8384 26.2893 32.887 27.6051 31.2608 29.2608C29.6346 30.9166 28.3189 32.868 27.3136 35.1151C26.3083 37.3622 25.8353 39.7423 25.8944 42.2555Z" fill="#CD5151"/>
<defs>
<filter id="filter0_d_305_4646" x="0" y="0" width="78" height="78" filterUnits="userSpaceOnUse" color-interpolation-filters="sRGB">
<feFlood flood-opacity="0" result="BackgroundImageFix"/>
<feColorMatrix in="SourceAlpha" type="matrix" values="0 0 0 0 0 0 0 0 0 0 0 0 0 0 0 0 0 0 127 0" result="hardAlpha"/>
<feOffset dy="2"/>
<feGaussianBlur stdDeviation="2"/>
<feComposite in2="hardAlpha" operator="out"/>
<feColorMatrix type="matrix" values="0 0 0 0 0 0 0 0 0 0 0 0 0 0 0 0 0 0 0.15 0"/>
<feBlend mode="normal" in2="BackgroundImageFix" result="effect1_dropShadow_305_4646"/>
<feBlend mode="normal" in="SourceGraphic" in2="effect1_dropShadow_305_4646" result="shape"/>
</filter>
</defs>
</svg>
