<svg width="80" height="80" viewBox="0 0 80 80" fill="none" xmlns="http://www.w3.org/2000/svg">
<rect x="12" y="12" width="56" height="56" rx="15" fill="white"/>
<path d="M45.1626 32.7912L44.9149 31.8224L44.9136 31.8227L45.1626 32.7912ZM47.6696 34.223L46.7056 34.4891L46.7058 34.4897L47.6696 34.223ZM48.2309 36.2519L47.2671 36.5186C47.2686 36.5241 47.2702 36.5296 47.2718 36.5351L48.2309 36.2519ZM46.9871 38.3944L47.2357 39.3631L47.247 39.3601L46.9871 38.3944ZM46.7594 38.4528L47.0039 39.4225L47.008 39.4215L46.7594 38.4528ZM45.8663 41.786L45.1664 42.5002L45.1668 42.5005L45.8663 41.786ZM46.0343 41.9504L46.7422 41.244L46.7339 41.2358L46.0343 41.9504ZM46.0402 44.4277L45.3511 43.703C45.347 43.7069 45.3429 43.7109 45.3388 43.7149L46.0402 44.4277ZM44.5396 45.9041L43.8383 45.1913L43.8378 45.1918L44.5396 45.9041ZM41.6526 45.8906L40.9527 46.6049L40.9536 46.6058L41.6526 45.8906ZM29.9273 42.7489L30.1704 43.7189L30.1763 43.7174L29.9273 42.7489ZM27.4203 41.317L28.3842 41.051L28.3841 41.0504L27.4203 41.317ZM26.859 39.2881L27.8228 39.0215C27.8213 39.016 27.8197 39.0105 27.8181 39.005L26.859 39.2881ZM28.1027 37.1457L27.8541 36.177L27.8428 36.18L28.1027 37.1457ZM28.3304 37.0872L28.086 36.1176L28.0819 36.1186L28.3304 37.0872ZM29.2235 33.7541L29.9234 33.0399L29.9231 33.0395L29.2235 33.7541ZM29.0555 33.5897L28.3476 34.296L28.356 34.3042L29.0555 33.5897ZM29.0497 31.1124L29.7387 31.8371C29.7428 31.8331 29.7469 31.8292 29.751 31.8252L29.0497 31.1124ZM30.5502 29.6359L31.2516 30.3487L31.252 30.3483L30.5502 29.6359ZM33.4373 29.6494L34.1372 28.9352L34.1362 28.9342L33.4373 29.6494ZM33.4563 36.6691C32.8569 38.906 34.2393 41.1717 36.473 41.7702L36.9906 39.8383C35.7735 39.5122 35.088 38.307 35.3881 37.1867L33.4563 36.6691ZM36.473 41.7702C38.7066 42.3687 41.0367 41.0978 41.6361 38.8608L39.7042 38.3432C39.4041 39.4635 38.2077 40.1645 36.9906 39.8383L36.473 41.7702ZM41.6361 38.8608C42.2355 36.6239 40.853 34.3582 38.6194 33.7597L38.1018 35.6916C39.3189 36.0177 40.0044 37.2229 39.7042 38.3432L41.6361 38.8608ZM38.6194 33.7597C36.3857 33.1612 34.0557 34.4321 33.4563 36.6691L35.3881 37.1867C35.6883 36.0664 36.8847 35.3654 38.1018 35.6916L38.6194 33.7597ZM39.0857 28.3543L40.9185 28.8454L41.4361 26.9135L39.6034 26.4225L39.0857 28.3543ZM40.9185 28.8454C41.4965 29.0003 41.8086 29.5735 41.674 30.0757L43.6059 30.5933C44.0414 28.968 43.024 27.339 41.4361 26.9135L40.9185 28.8454ZM41.674 30.0757C41.3701 31.2101 41.5125 32.3671 42.3132 33.1479C43.106 33.921 44.2679 34.0538 45.4116 33.7597L44.9136 31.8227C44.1753 32.0125 43.8302 31.8338 43.7094 31.716C43.5965 31.6058 43.4185 31.2926 43.6059 30.5933L41.674 30.0757ZM45.4103 33.76C45.9756 33.6155 46.5602 33.962 46.7056 34.4891L48.6335 33.957C48.1901 32.35 46.5062 31.4155 44.9149 31.8224L45.4103 33.76ZM46.7058 34.4897L47.2671 36.5186L49.1947 35.9853L48.6334 33.9564L46.7058 34.4897ZM47.2718 36.5351C47.3776 36.8935 47.1702 37.3096 46.7273 37.4288L47.247 39.3601C48.7045 38.9678 49.6341 37.4733 49.1899 35.9688L47.2718 36.5351ZM46.7386 37.4258L46.5109 37.4842L47.008 39.4215L47.2357 39.363L46.7386 37.4258ZM46.515 37.4832C45.3759 37.7703 44.4121 38.4449 44.1218 39.5282C43.8319 40.61 44.327 41.6776 45.1664 42.5002L46.5662 41.0717C46.0178 40.5343 46.0198 40.1722 46.0537 40.0459C46.0871 39.9211 46.2637 39.6091 47.0039 39.4225L46.515 37.4832ZM45.1668 42.5005L45.3348 42.665L46.7339 41.2358L46.5659 41.0714L45.1668 42.5005ZM45.3264 42.6567C45.6504 42.9814 45.622 43.4454 45.3511 43.703L46.7292 45.1524C47.8661 44.0715 47.8083 42.3125 46.7422 41.2441L45.3264 42.6567ZM45.3388 43.7149L43.8383 45.1913L45.241 46.617L46.7415 45.1405L45.3388 43.7149ZM43.8378 45.1918C43.4483 45.5755 42.7688 45.5833 42.3515 45.1755L40.9536 46.6058C42.1284 47.7539 44.0539 47.7865 45.2414 46.6165L43.8378 45.1918ZM42.3525 45.1764C41.5091 44.3499 40.4364 43.8839 39.3633 44.157C38.2795 44.4328 37.5776 45.3637 37.2737 46.4981L39.2055 47.0157C39.3929 46.3165 39.7036 46.1342 39.8565 46.0953C40.02 46.0536 40.4082 46.0714 40.9527 46.6049L42.3525 45.1764ZM37.2737 46.4981C37.1401 46.9967 36.5859 47.3416 36.0042 47.1858L35.4865 49.1176C37.0916 49.5477 38.7745 48.6244 39.2055 47.0157L37.2737 46.4981ZM36.0042 47.1858L34.1714 46.6947L33.6538 48.6265L35.4865 49.1176L36.0042 47.1858ZM34.1714 46.6947C33.5934 46.5398 33.2812 45.9666 33.4158 45.4644L31.4839 44.9468C31.0484 46.5721 32.0659 48.2011 33.6538 48.6265L34.1714 46.6947ZM33.4158 45.4644C33.7198 44.33 33.5774 43.1729 32.7767 42.3922C31.9838 41.6191 30.8219 41.4863 29.6783 41.7804L30.1763 43.7174C30.9145 43.5276 31.2596 43.7063 31.3804 43.8241C31.4933 43.9342 31.6713 44.2475 31.4839 44.9468L33.4158 45.4644ZM29.6841 41.7789C29.1042 41.9242 28.5293 41.5768 28.3842 41.051L26.4563 41.583C26.9001 43.1912 28.5729 44.1193 30.1704 43.7189L29.6841 41.7789ZM28.3841 41.0504L27.8228 39.0215L25.8952 39.5547L26.4565 41.5837L28.3841 41.0504ZM27.8181 39.005C27.7122 38.6465 27.9196 38.2305 28.3626 38.1113L27.8428 36.18C26.3853 36.5723 25.4558 38.0667 25.8999 39.5712L27.8181 39.005ZM28.3512 38.1143L28.579 38.0558L28.0819 36.1186L27.8542 36.177L28.3512 38.1143ZM28.5749 38.0569C29.7139 37.7697 30.6778 37.0952 30.968 36.0118C31.2579 34.9301 30.7629 33.8625 29.9234 33.0399L28.5236 34.4683C29.072 35.0058 29.07 35.3678 29.0362 35.4942C29.0027 35.619 28.8261 35.931 28.086 36.1176L28.5749 38.0569ZM29.9231 33.0395L29.7551 32.8751L28.356 34.3042L28.524 34.4687L29.9231 33.0395ZM29.7634 32.8833C29.4394 32.5586 29.4678 32.0946 29.7387 31.8371L28.3606 30.3876C27.2238 31.4685 27.2815 33.2275 28.3476 34.296L29.7634 32.8833ZM29.751 31.8252L31.2516 30.3487L29.8488 28.9231L28.3483 30.3996L29.751 31.8252ZM31.252 30.3483C31.6415 29.9646 32.321 29.9568 32.7383 30.3646L34.1362 28.9342C32.9615 27.7862 31.0359 27.7536 29.8484 28.9236L31.252 30.3483ZM32.7374 30.3637C33.5808 31.1901 34.6534 31.6561 35.7266 31.383C36.8104 31.1072 37.5122 30.1764 37.8162 29.042L35.8843 28.5243C35.6969 29.2236 35.3862 29.4059 35.2333 29.4448C35.0698 29.4864 34.6816 29.4687 34.1372 28.9352L32.7374 30.3637ZM37.8162 29.042C37.9507 28.5398 38.5077 28.1994 39.0857 28.3543L39.6034 26.4225C38.0155 25.997 36.3198 26.899 35.8843 28.5243L37.8162 29.042Z" fill="black" fill-opacity="0.6"/>
<path fill-rule="evenodd" clip-rule="evenodd" d="M36.9964 52.1791C36.4936 52.2673 36.2153 52.8178 36.5803 53.1746C36.7433 53.3338 36.9281 53.475 37.133 53.5931L38.7823 54.5438C40.0787 55.291 41.7501 54.8767 42.4932 53.5918C42.8929 52.9007 43.3338 52.7046 43.6472 52.7086C43.9681 52.7126 44.4278 52.9288 44.8515 53.6445L44.852 53.6453C45.6055 54.9142 47.2711 55.3869 48.5691 54.6519L50.4029 53.6146C51.6121 52.9537 51.9703 51.4442 51.2999 50.2819L51.2959 50.2751L51.1759 50.0726C50.7503 49.3537 50.7983 48.8732 50.9438 48.6216C51.0887 48.371 51.4789 48.0912 52.3114 48.1036L52.5502 48.1061L52.5582 48.1062C53.9016 48.1047 55.0321 47.0402 55.0008 45.6643L54.9838 43.5607C54.9724 42.071 53.7295 40.8669 52.2519 40.8499L52.251 40.8499C51.4183 40.8415 51.0009 40.5521 50.837 40.2767C50.7031 40.0517 50.6459 39.6797 50.8647 39.1595C50.8896 39.1004 50.8324 39.0348 50.7704 39.0514L50.4615 39.1306C49.7476 39.3102 49.2442 40.0248 49.5305 40.703C49.5691 40.7944 49.6143 40.8839 49.6663 40.9713C50.1566 41.795 51.1191 42.1979 52.2365 42.2094C52.2364 42.2094 52.2365 42.2094 52.2365 42.2094L52.2441 41.5297L52.2372 42.2087C52.2372 42.2091 52.2369 42.2094 52.2365 42.2094C52.993 42.2182 53.6165 42.8425 53.6219 43.5709L53.639 45.6807L53.6392 45.6924C53.6535 46.2582 53.1885 46.7441 52.5603 46.7466L52.3316 46.7442L52.3301 46.7441C51.2181 46.728 50.2469 47.1074 49.7643 47.9418C49.4721 48.4471 49.4137 49.0247 49.5391 49.6145L46.0235 52.952C45.4548 51.9918 44.6241 51.3612 43.6644 51.3491C42.6969 51.337 41.8669 51.9557 41.3138 52.912C40.962 53.5204 40.1349 53.7535 39.4633 53.3664L37.8139 52.4157C37.8011 52.4083 37.7884 52.4008 37.7759 52.393M49.5391 49.6145C49.5391 49.6145 49.5391 49.6146 49.5391 49.6145V49.6145ZM49.5391 49.6145L46.0235 52.952C46.4093 53.6017 47.2628 53.8287 47.8974 53.4692L49.7362 52.4291L49.7464 52.4234C50.2444 52.1529 50.4334 51.5079 50.1215 50.9635L50.0036 50.7646C49.7802 50.3873 49.6207 49.9982 49.5391 49.6145Z" fill="black" fill-opacity="0.4"/>
</svg>
