<svg width="80" height="80" viewBox="0 0 80 80" fill="none" xmlns="http://www.w3.org/2000/svg">
<rect x="8" y="8" width="64" height="64" rx="15" fill="white"/>
<path d="M32.9363 28.1883C34.6606 26.2347 37.1868 25 40 25C45.2017 25 49.4186 29.2168 49.4186 34.4186V36.2364C49.7351 36.2587 50.0334 36.2877 50.314 36.3254C51.57 36.4943 52.6275 36.8555 53.4674 37.6954C54.3073 38.5353 54.6685 39.5928 54.8374 40.8488C55 42.0585 55 43.5965 55 45.5047V45.6581C55 47.5663 55 49.1043 54.8374 50.314C54.6685 51.57 54.3073 52.6275 53.4674 53.4674C52.6275 54.3073 51.57 54.6685 50.314 54.8374C49.1043 55 47.5662 55 45.6579 55H44.186C43.6081 55 43.1395 54.5315 43.1395 53.9535C43.1395 53.3755 43.6081 52.907 44.186 52.907H45.5814C47.5843 52.907 48.9812 52.9048 50.0351 52.763C51.059 52.6254 51.6012 52.3736 51.9874 51.9874C52.3736 51.6012 52.6254 51.059 52.763 50.0351C52.9048 48.9812 52.907 47.5843 52.907 45.5814C52.907 43.5785 52.9048 42.1816 52.763 41.1277C52.6254 40.1038 52.3736 39.5616 51.9874 39.1754C51.6012 38.7892 51.059 38.5374 50.0351 38.3998C48.9812 38.258 47.5843 38.2558 45.5814 38.2558H34.4186C32.4157 38.2558 31.0188 38.258 29.9648 38.3998C28.941 38.5374 28.3988 38.7892 28.0126 39.1754C27.6264 39.5616 27.3746 40.1038 27.237 41.1277C27.0952 42.1816 27.093 43.5785 27.093 45.5814C27.093 47.5843 27.0952 48.9812 27.237 50.0351C27.3746 51.059 27.6264 51.6012 28.0126 51.9874C28.3988 52.3736 28.941 52.6254 29.9648 52.763C31.0188 52.9048 32.4157 52.907 34.4186 52.907H38.6047C39.1826 52.907 39.6512 53.3755 39.6512 53.9535C39.6512 54.5315 39.1826 55 38.6047 55H34.3421C32.4338 55 30.8957 55 29.6859 54.8374C28.43 54.6685 27.3725 54.3073 26.5326 53.4674C25.6927 52.6275 25.3315 51.57 25.1626 50.314C24.9999 49.1043 25 47.5662 25 45.658V45.5048C25 43.5966 24.9999 42.0585 25.1626 40.8488C25.3315 39.5928 25.6927 38.5353 26.5326 37.6954C27.3725 36.8555 28.43 36.4943 29.6859 36.3254C29.9666 36.2877 30.2649 36.2587 30.5814 36.2364V34.4186C30.5814 33.8849 30.6259 33.3609 30.7116 32.8501C30.8072 32.2801 31.3468 31.8955 31.9168 31.9912C32.4868 32.0868 32.8714 32.6264 32.7758 33.1964C32.7092 33.5932 32.6744 34.0014 32.6744 34.4186V36.1676C33.1956 36.1628 33.7511 36.1628 34.342 36.1628H45.658C46.2489 36.1628 46.8044 36.1628 47.3256 36.1676V34.4186C47.3256 30.3728 44.0458 27.093 40 27.093C37.8122 27.093 35.8494 28.0508 34.5055 29.5733C34.1231 30.0067 33.4617 30.0479 33.0284 29.6654C32.5951 29.283 32.5539 28.6216 32.9363 28.1883Z" fill="black" fill-opacity="0.6"/>
<path d="M35.814 45.5814C35.814 46.352 35.1892 46.9767 34.4186 46.9767C33.648 46.9767 33.0233 46.352 33.0233 45.5814C33.0233 44.8107 33.648 44.186 34.4186 44.186C35.1892 44.186 35.814 44.8107 35.814 45.5814Z" fill="black" fill-opacity="0.6"/>
<path d="M41.3953 45.5814C41.3953 46.352 40.7706 46.9767 40 46.9767C39.2293 46.9767 38.6046 46.352 38.6046 45.5814C38.6046 44.8107 39.2293 44.186 40 44.186C40.7706 44.186 41.3953 44.8107 41.3953 45.5814Z" fill="black" fill-opacity="0.6"/>
<path d="M45.5814 46.9767C46.352 46.9767 46.9767 46.352 46.9767 45.5814C46.9767 44.8107 46.352 44.186 45.5814 44.186C44.8107 44.186 44.186 44.8107 44.186 45.5814C44.186 46.352 44.8107 46.9767 45.5814 46.9767Z" fill="black" fill-opacity="0.6"/>
</svg>
