<svg width="201" height="24" viewBox="0 0 201 24" fill="none" xmlns="http://www.w3.org/2000/svg">
<rect width="201" height="24" rx="12" fill="#D84343"/>
<path d="M63.788 12.556L64.52 12.808C64.232 13.828 63.764 14.992 62.948 15.712L62.288 15.184C63.032 14.572 63.524 13.504 63.788 12.556ZM66.656 13.012L67.34 12.772C67.748 13.576 68.084 14.632 68.204 15.328L67.472 15.604C67.364 14.896 67.028 13.828 66.656 13.012ZM68.144 12.748L68.852 12.388C69.596 13.288 70.328 14.512 70.64 15.34L69.872 15.748C69.584 14.908 68.852 13.648 68.144 12.748ZM67.736 9.28C68.312 10.42 69.464 11.488 70.664 11.992C70.46 12.16 70.184 12.496 70.052 12.724C68.792 12.1 67.604 10.864 66.956 9.544L67.736 9.28ZM65.684 7.18L66.596 7.324C65.96 10 64.64 11.776 62.564 12.88C62.444 12.688 62.132 12.328 61.952 12.172C63.956 11.224 65.168 9.592 65.684 7.18ZM69.068 6.04L69.776 6.724C68.036 7.288 65.276 7.564 62.972 7.672C62.936 7.456 62.828 7.12 62.72 6.904C64.976 6.784 67.652 6.496 69.068 6.04ZM62.3 8.908H70.352V9.736H62.3V8.908ZM65.288 11.308H66.128V15.976C66.128 16.432 66.044 16.684 65.708 16.816C65.396 16.948 64.868 16.948 64.052 16.948C64.028 16.72 63.908 16.396 63.8 16.144C64.4 16.168 64.928 16.168 65.084 16.156C65.24 16.144 65.288 16.108 65.288 15.964V11.308ZM60.02 6.676L60.536 6.04C61.22 6.352 62.06 6.868 62.492 7.276L61.94 7.996C61.544 7.588 60.716 7.024 60.02 6.676ZM59.444 9.94L59.948 9.28C60.668 9.556 61.544 10.036 61.976 10.42L61.46 11.14C61.028 10.756 60.164 10.24 59.444 9.94ZM59.708 16.3C60.2 15.412 60.884 13.936 61.376 12.64L62.096 13.144C61.64 14.344 61.052 15.748 60.524 16.816L59.708 16.3ZM78.26 15.028H81.524V15.904H78.26V15.028ZM71.636 8.2H76.244V9.076H71.636V8.2ZM77.852 7.42H81.956V16.696H81.044V8.284H78.728V16.78H77.852V7.42ZM76.004 8.2H76.88C76.88 8.2 76.88 8.536 76.88 8.656C76.784 13.996 76.7 15.748 76.316 16.276C76.1 16.588 75.884 16.696 75.524 16.732C75.188 16.78 74.636 16.78 74.096 16.744C74.084 16.48 73.988 16.084 73.832 15.832C74.396 15.88 74.912 15.88 75.14 15.88C75.32 15.892 75.428 15.856 75.536 15.7C75.812 15.328 75.92 13.552 76.004 8.416V8.2ZM73.34 6.088H74.216C74.204 10.516 74.144 14.68 72.032 16.972C71.876 16.768 71.564 16.492 71.336 16.36C73.34 14.248 73.328 10.288 73.34 6.088ZM89.54 9.16H94.52V10H89.54V9.16ZM83.504 8.476H89.672V9.244H83.504V8.476ZM83.936 11.104H89.228V11.86H83.936V11.104ZM84.26 13.084H88.988V13.84H84.26V13.084ZM92.372 6.004H93.236V15.856C93.236 16.408 93.092 16.66 92.756 16.804C92.396 16.96 91.808 16.984 90.836 16.972C90.788 16.744 90.632 16.36 90.512 16.12C91.232 16.144 91.892 16.144 92.084 16.132C92.288 16.132 92.372 16.06 92.372 15.856V6.004ZM89.924 11.212L90.68 10.948C91.196 11.824 91.664 12.952 91.784 13.684L90.98 13.972C90.86 13.252 90.404 12.1 89.924 11.212ZM83.624 6.556L84.272 6.28C84.668 6.844 85.028 7.588 85.16 8.08L84.464 8.404C84.344 7.9 83.996 7.132 83.624 6.556ZM84.5 9.508L85.22 9.268C85.52 9.772 85.796 10.432 85.88 10.864L85.124 11.14C85.052 10.708 84.788 10.012 84.5 9.508ZM85.388 5.98H86.12V8.848H85.388V5.98ZM86.156 11.344H87.008V15.676H86.156V11.344ZM87.044 5.98H87.788V8.848H87.044V5.98ZM83.54 15.592C85.04 15.412 87.356 15.124 89.552 14.824L89.576 15.616C87.464 15.928 85.208 16.228 83.672 16.444L83.54 15.592ZM88.928 6.208L89.732 6.52C89.372 7.168 88.94 7.924 88.604 8.416L87.98 8.14C88.304 7.636 88.724 6.784 88.928 6.208ZM87.908 9.244L88.736 9.472C88.484 10.06 88.184 10.696 87.944 11.116L87.224 10.912C87.464 10.468 87.764 9.736 87.908 9.244ZM100.328 7.636L106.232 7.06L106.304 7.792L100.412 8.368L100.328 7.636ZM100.184 12.976L106.388 12.388L106.472 13.12L100.244 13.72L100.184 12.976ZM101.588 5.92H102.404C102.608 8.512 104.276 10.54 105.428 10.528C105.716 10.528 105.8 10.264 105.848 9.508C106.028 9.664 106.28 9.796 106.496 9.868C106.352 11.008 106.052 11.32 105.38 11.32C103.712 11.32 101.828 8.932 101.588 5.92ZM101.636 11.248H102.464C102.632 14.044 104.144 16.18 105.44 16.156C105.752 16.156 105.836 15.868 105.896 15.04C106.076 15.208 106.34 15.352 106.556 15.424C106.412 16.636 106.112 16.96 105.392 16.96C103.532 16.96 101.84 14.452 101.636 11.248ZM104.768 8.152L105.524 8.44C104.468 9.748 102.464 10.636 100.628 11.176C100.52 11.008 100.256 10.66 100.088 10.504C101.924 10.072 103.832 9.28 104.768 8.152ZM104.948 13.468L105.752 13.756C104.588 15.304 102.368 16.3 100.244 16.888C100.148 16.708 99.884 16.324 99.716 16.156C101.828 15.688 103.94 14.812 104.948 13.468ZM103.472 6.424L103.892 5.956C104.42 6.124 105.104 6.436 105.452 6.688L105.032 7.228C104.696 6.952 104.012 6.628 103.472 6.424ZM103.292 11.56L103.772 11.092C104.324 11.308 105.008 11.656 105.356 11.944L104.852 12.46C104.516 12.172 103.844 11.788 103.292 11.56ZM96.296 8.896H99.668V9.676H96.296V8.896ZM95.648 10.948H100.04V11.74H95.648V10.948ZM95.924 12.532L96.548 12.376C96.788 13.108 96.98 14.032 97.028 14.656L96.356 14.824C96.344 14.2 96.152 13.264 95.924 12.532ZM95.54 15.76C96.704 15.568 98.456 15.22 100.148 14.872L100.208 15.628C98.624 15.976 96.968 16.336 95.72 16.6L95.54 15.76ZM99.26 12.268L99.956 12.448C99.752 13.18 99.548 14.044 99.344 14.608L98.756 14.44C98.936 13.852 99.152 12.904 99.26 12.268ZM97.532 9.184H98.324V15.724L97.532 15.856V9.184ZM97.496 5.932H97.964V6.124H98.228V6.352C97.76 7.276 96.98 8.548 95.792 9.592C95.66 9.412 95.396 9.148 95.228 9.028C96.32 8.116 97.088 6.892 97.496 5.932ZM97.64 5.932H98.312C99.02 6.568 99.908 7.492 100.328 8.092L99.728 8.776C99.32 8.164 98.504 7.168 97.808 6.568H97.64V5.932ZM110.384 5.86L111.32 6.124C110.564 7.996 109.388 9.772 108.164 10.924C107.984 10.756 107.6 10.432 107.36 10.288C108.608 9.244 109.712 7.576 110.384 5.86ZM110.24 7.3H117.008V8.152H109.808L110.24 7.3ZM116.72 7.3H117.62C117.62 7.3 117.62 7.6 117.62 7.732C117.5 11.776 117.38 13.204 117.032 13.648C116.816 13.924 116.576 14.02 116.216 14.056C115.88 14.092 115.28 14.08 114.632 14.056C114.62 13.792 114.524 13.432 114.38 13.192C114.992 13.252 115.568 13.264 115.796 13.264C115.988 13.264 116.12 13.228 116.216 13.096C116.492 12.784 116.612 11.404 116.72 7.48V7.3ZM109.604 12.292H113.336V10.24H109.352V9.436H114.236V13.096H109.604V12.292ZM109.172 12.292H110.072V15.376C110.072 15.868 110.312 15.976 111.608 15.976C112.22 15.976 115.328 15.976 116.132 15.976C117.224 15.976 117.404 15.736 117.512 14.356C117.74 14.488 118.124 14.632 118.376 14.68C118.196 16.408 117.848 16.828 116.144 16.828C115.7 16.828 112.076 16.828 111.656 16.828C109.736 16.828 109.172 16.564 109.172 15.376V12.292ZM122.24 15.868H128.588V16.564H122.24V15.868ZM124.532 8.356H125.408V9.688H124.532V8.356ZM119.972 9.292H130.112V11.548H129.224V10.012H120.836V11.548H119.972V9.292ZM122.192 10.756H128.348V13.168H122.192V12.472H127.46V11.44H122.192V10.756ZM122.228 13.996H129.116V16.948H128.228V14.704H122.228V13.996ZM121.712 10.756H122.576V16.972H121.712V10.756ZM120.956 6.844H124.832V7.588H120.956V6.844ZM125.636 6.844H130.484V7.588H125.636V6.844ZM121.184 5.872L122.036 6.088C121.592 7.144 120.884 8.188 120.188 8.872C120.02 8.74 119.66 8.488 119.444 8.38C120.164 7.756 120.812 6.808 121.184 5.872ZM125.912 5.872L126.764 6.076C126.332 7.12 125.576 8.092 124.82 8.716C124.64 8.584 124.268 8.368 124.04 8.26C124.832 7.684 125.528 6.796 125.912 5.872ZM121.628 7.408L122.408 7.204C122.684 7.624 122.996 8.212 123.116 8.584L122.3 8.824C122.192 8.452 121.904 7.852 121.628 7.408ZM126.716 7.42L127.508 7.18C127.88 7.6 128.312 8.188 128.492 8.584L127.676 8.848C127.508 8.464 127.1 7.852 126.716 7.42ZM136.7 9.532V11.08H141.164V9.532H136.7ZM136.7 7.264V8.788H141.164V7.264H136.7ZM135.884 6.484H142.028V11.86H135.884V6.484ZM135.728 13.264H142.196V14.092H135.728V13.264ZM134.804 15.748H142.592V16.564H134.804V15.748ZM131.54 6.736H135.284V7.588H131.54V6.736ZM131.672 10.204H135.116V11.056H131.672V10.204ZM131.42 14.8C132.392 14.536 133.832 14.068 135.224 13.6L135.38 14.464C134.072 14.908 132.704 15.364 131.636 15.724L131.42 14.8ZM133.04 7.072H133.904V14.512L133.04 14.68V7.072ZM138.536 6.856H139.328V11.476H139.388V16.12H138.476V11.476H138.536V6.856Z" fill="white"/>
</svg>
