<svg width="80" height="80" viewBox="0 0 80 80" fill="none" xmlns="http://www.w3.org/2000/svg">
<rect x="12" y="12" width="56" height="56" rx="15" fill="white"/>
<path fill-rule="evenodd" clip-rule="evenodd" d="M35.7692 35.814C35.7692 33.6947 37.6634 31.9768 40 31.9768C42.3366 31.9768 44.2308 33.6947 44.2308 35.814C44.2308 37.9332 42.3366 39.6512 40 39.6512C37.6634 39.6512 35.7692 37.9332 35.7692 35.814ZM40 34.0698C38.9378 34.0698 38.0769 34.8507 38.0769 35.814C38.0769 36.7773 38.9378 37.5582 40 37.5582C41.0622 37.5582 41.9231 36.7773 41.9231 35.814C41.9231 34.8507 41.0622 34.0698 40 34.0698Z" fill="black" fill-opacity="0.6"/>
<path fill-rule="evenodd" clip-rule="evenodd" d="M40 40.3489C38.1603 40.3489 36.4379 40.6847 35.1326 41.2768C33.8963 41.8374 32.6923 42.8055 32.6923 44.1861L32.6921 44.2733C32.6898 44.9853 32.6858 46.1845 33.9388 47.0072C34.5203 47.3888 35.2875 47.6323 36.238 47.7875C37.1972 47.944 38.4265 48.0233 40 48.0233C41.5735 48.0233 42.8028 47.944 43.762 47.7875C44.7125 47.6323 45.4797 47.3888 46.0612 47.0072C47.3142 46.1845 47.3103 44.9853 47.3078 44.2733L47.3077 44.1861C47.3077 42.8055 46.1037 41.8374 44.8674 41.2768C43.5622 40.6847 41.8397 40.3489 40 40.3489ZM35 44.1861C35 44.0253 35.1736 43.5982 36.1646 43.1488C37.0866 42.7307 38.4409 42.4419 40 42.4419C41.5591 42.4419 42.9134 42.7307 43.8354 43.1488C44.8263 43.5982 45 44.0253 45 44.1861C45 45.0296 44.9408 45.1589 44.708 45.3117C44.5203 45.4349 44.1337 45.6001 43.3534 45.7275C42.5818 45.8534 41.5034 45.9302 40 45.9302C38.4966 45.9302 37.4182 45.8534 36.6466 45.7275C35.8663 45.6001 35.4797 45.4349 35.292 45.3117C35.0592 45.1589 35 45.0296 35 44.1861Z" fill="black" fill-opacity="0.6"/>
<path fill-rule="evenodd" clip-rule="evenodd" d="M40 25C38.5577 25 37.1805 25.4278 34.9591 26.1178L33.8393 26.4655C31.5606 27.1729 29.802 27.7189 28.5431 28.1828C27.9089 28.4165 27.3636 28.6428 26.9246 28.8741C26.5021 29.0966 26.0782 29.3742 25.7902 29.7463C25.5055 30.1142 25.3584 30.5664 25.2659 31.0017C25.1697 31.4543 25.1117 31.9972 25.0743 32.6205C25 33.8582 25 35.5541 25 37.7534V39.988C25 48.501 32.0893 52.5826 36.3051 54.2529L36.3468 54.2694C36.8696 54.4766 37.3609 54.6713 37.9255 54.8024C38.5217 54.9408 39.1549 55 40 55C40.8451 55 41.4783 54.9408 42.0745 54.8024C42.6391 54.6713 43.1305 54.4766 43.6532 54.2694L43.6949 54.2529C47.9108 52.5826 55 48.501 55 39.988V37.7532C55 35.5539 55 33.8582 54.9257 32.6205C54.8883 31.9972 54.8303 31.4543 54.7342 31.0017C54.6417 30.5664 54.4945 30.1142 54.2098 29.7463C53.9218 29.3742 53.498 29.0966 53.0754 28.8741C52.6363 28.6428 52.0911 28.4165 51.4569 28.1828C50.1978 27.7189 48.4391 27.1728 46.16 26.4653L45.0409 26.1178C42.8195 25.4278 41.4423 25 40 25ZM35.5086 28.1595C37.9925 27.3883 38.9882 27.093 40 27.093C41.0118 27.093 42.0075 27.3883 44.4914 28.1595L45.3726 28.4331C47.6997 29.1555 49.3968 29.6829 50.5883 30.1219C51.1831 30.341 51.614 30.5247 51.9165 30.684C52.0658 30.7627 52.1688 30.8276 52.2374 30.8782C52.2957 30.9211 52.3178 30.9455 52.3211 30.949C52.324 30.9534 52.3432 30.9824 52.3702 31.051C52.4009 31.1293 52.4349 31.2415 52.4682 31.3978C52.5354 31.714 52.5863 32.1484 52.6214 32.7343C52.6918 33.9081 52.6923 35.5465 52.6923 37.7907V39.988C52.6923 47.2091 46.7386 50.763 42.7711 52.3349C42.1995 52.5613 41.8695 52.6894 41.5022 52.7747C41.1512 52.8562 40.7231 52.907 40 52.907C39.2769 52.907 38.8488 52.8562 38.4978 52.7747C38.1305 52.6894 37.8005 52.5613 37.2289 52.3349C33.2614 50.763 27.3077 47.2091 27.3077 39.988V37.7907C27.3077 35.5465 27.3081 33.9081 27.3786 32.7343C27.4138 32.1484 27.4647 31.714 27.5319 31.3978C27.5651 31.2415 27.5991 31.1293 27.6299 31.051C27.6568 30.9824 27.6759 30.9534 27.6789 30.9491C27.6821 30.9455 27.7043 30.9212 27.7626 30.8782C27.8313 30.8276 27.9342 30.7627 28.0835 30.684C28.386 30.5247 28.8169 30.341 29.4117 30.1219C30.6032 29.6829 32.3003 29.1555 34.6274 28.4331L35.5086 28.1595Z" fill="black" fill-opacity="0.6"/>
</svg>
