<svg width="80" height="80" viewBox="0 0 80 80" fill="none" xmlns="http://www.w3.org/2000/svg">
<rect x="8" y="8" width="64" height="64" rx="15" fill="white"/>
<path fill-rule="evenodd" clip-rule="evenodd" d="M43.8809 37.8069C42.7322 38.5753 41.3816 38.9854 40 38.9854C38.1473 38.9854 36.3706 38.2487 35.0605 36.9373C33.7505 35.6259 33.0146 33.8473 33.0146 31.9927C33.0146 30.6097 33.4242 29.2577 34.1918 28.1078C34.9594 26.9578 36.0504 26.0616 37.3268 25.5323C38.6032 25.003 40.0077 24.8646 41.3628 25.1344C42.7178 25.4042 43.9625 26.0702 44.9395 27.0481C45.9164 28.0261 46.5817 29.2721 46.8512 30.6285C47.1208 31.985 46.9824 33.391 46.4537 34.6687C45.925 35.9465 45.0297 37.0386 43.8809 37.8069ZM42.5873 28.1166C41.8214 27.6043 40.9211 27.3309 40 27.3309C38.7649 27.3309 37.5804 27.8221 36.707 28.6963C35.8337 29.5706 35.343 30.7563 35.343 31.9927C35.343 32.9147 35.6162 33.816 36.1279 34.5827C36.6396 35.3493 37.3669 35.9468 38.2179 36.2997C39.0688 36.6525 40.0052 36.7448 40.9085 36.565C41.8119 36.3851 42.6417 35.9411 43.293 35.2891C43.9443 34.6371 44.3878 33.8065 44.5675 32.9022C44.7472 31.9979 44.6549 31.0606 44.3025 30.2087C43.95 29.3569 43.3531 28.6288 42.5873 28.1166Z" fill="black" fill-opacity="0.6"/>
<path d="M30.7692 41.1394H49.2308C50.7609 41.1394 52.2283 41.7479 53.3102 42.831C54.3922 43.914 55 45.383 55 46.9147V55H52.6923V46.9147C52.6923 45.9957 52.3276 45.1143 51.6784 44.4644C51.0293 43.8146 50.1488 43.4495 49.2308 43.4495H30.7692C29.8512 43.4495 28.9707 43.8146 28.3216 44.4644C27.6724 45.1143 27.3077 45.9957 27.3077 46.9147V55H25V46.9147C25 45.383 25.6078 43.914 26.6898 42.831C27.7717 41.7479 29.2391 41.1394 30.7692 41.1394Z" fill="black" fill-opacity="0.6"/>
</svg>
