<svg width="87" height="87" viewBox="0 0 87 87" fill="none" xmlns="http://www.w3.org/2000/svg">
<rect width="86.9" height="87" rx="43.45" fill="white"/>
<ellipse cx="44" cy="70" rx="27" ry="8" fill="#767EA3"/>
<rect x="19.0212" y="16.5" width="40.1702" height="31.25" fill="#C8997F"/>
<path d="M22.7872 36.5C21.3508 36.5 19.9851 37.0875 18.6074 37.4942C18.0444 37.6604 17.4455 37.75 16.8245 37.75C15.484 37.75 14 38.6636 14 39.9984L15.2553 66.5C15.2553 70.6421 17.3722 74 21.5319 74H65.4681C69.6278 74 71.7447 70.6422 71.7447 66.5L73 38.2411C73 37.0905 71.7489 36.5 70.5983 36.5H69.8525C68.8291 36.5 67.8562 36.893 66.91 37.2827C66.18 37.5833 65.374 37.75 64.5266 37.75C63.9055 37.75 63.3066 37.6604 62.7437 37.4942C61.366 37.0875 60.0003 36.5 58.5638 36.5C57.1273 36.5 55.7617 37.0875 54.384 37.4942C53.821 37.6604 53.2221 37.75 52.6011 37.75C51.98 37.75 51.3811 37.6604 50.8181 37.4942C49.4404 37.0875 48.0748 36.5 46.6383 36.5C45.2018 36.5 43.8362 37.0875 42.4585 37.4942C41.8955 37.6604 41.2966 37.75 40.6755 37.75C40.0545 37.75 39.4556 37.6604 38.8926 37.4942C37.5149 37.0875 36.1492 36.5 34.7128 36.5C33.2763 36.5 31.9106 37.0875 30.5329 37.4942C29.9699 37.6604 29.3711 37.75 28.75 37.75C28.1289 37.75 27.5301 37.6604 26.9671 37.4942C25.5894 37.0875 24.2237 36.5 22.7872 36.5Z" fill="#FEC081"/>
<rect x="19.0212" y="57.75" width="13.8085" height="1.25" fill="white"/>
<rect x="19.0212" y="60.25" width="13.8085" height="1.25" fill="white"/>
<rect x="19.0212" y="64" width="13.8085" height="1.25" fill="white"/>
<path d="M39.1065 25.25L58.675 16.8125H19.538L39.1065 25.25Z" fill="#B57C5D"/>
<rect x="25.2979" y="26.5" width="7.53191" height="5" fill="#B3BAC0"/>
<rect x="26.5532" y="27.75" width="3.76596" height="1.25" fill="#D9D9D9"/>
<g opacity="0.35">
<path d="M71.8531 64.061C67.5657 66.4382 62.8654 67.75 57.9362 67.75C37.8307 67.75 21.532 45.9239 21.532 19C21.532 18.1615 21.5478 17.3281 21.579 16.5H59.1916V36.5355C60.0726 36.6322 60.9312 36.9124 61.7865 37.1916L61.7881 37.1921C62.106 37.2959 62.4236 37.3996 62.7418 37.4937C63.3054 37.6602 63.9049 37.75 64.5267 37.75C65.3742 37.75 66.1805 37.5832 66.9106 37.2825C67.8567 36.8927 68.8297 36.5 69.8537 36.5H70.5914C71.746 36.5 73.0001 37.0914 73.0001 38.2411L71.8531 64.061Z" fill="white" style="mix-blend-mode:soft-light"/>
</g>
</svg>
