<svg width="54" height="55" viewBox="0 0 54 55" fill="none" xmlns="http://www.w3.org/2000/svg">
<path d="M22.856 44.748H23.488V46.244H22.856V44.748ZM22.864 46.436H23.48V52.164H22.864V46.436ZM19.6 45.892H26.808V46.476H19.6V45.892ZM20.424 47.572H25.68V48.156H21.024V51.148H20.424V47.572ZM25.448 47.572H26.064V50.388C26.064 50.732 25.984 50.916 25.72 51.02C25.44 51.116 24.992 51.124 24.304 51.124C24.28 50.94 24.184 50.7 24.096 50.532C24.64 50.548 25.128 50.548 25.264 50.54C25.408 50.532 25.448 50.5 25.448 50.388V47.572ZM29.44 48.068H34.48V48.596H29.44V48.068ZM30.344 49.156H33.832V49.644H30.344V49.156ZM30.736 48.268L31.256 48.404C30.848 49.292 30.12 50.076 29.376 50.572C29.296 50.468 29.088 50.284 28.968 50.196C29.704 49.756 30.368 49.06 30.736 48.268ZM33.72 49.156H34.288C34.288 49.156 34.28 49.308 34.264 49.396C34.144 51.052 34.016 51.684 33.8 51.916C33.672 52.052 33.528 52.1 33.336 52.116C33.16 52.124 32.856 52.132 32.536 52.116C32.536 51.964 32.48 51.748 32.4 51.62C32.704 51.644 32.968 51.652 33.08 51.652C33.2 51.652 33.264 51.644 33.328 51.564C33.48 51.412 33.608 50.812 33.72 49.244V49.156ZM30.776 46.532V47.172H33.352V46.532H30.776ZM30.776 45.468V46.1H33.352V45.468H30.776ZM30.232 45.02H33.912V47.62H30.232V45.02ZM27.216 46.516H29.592V47.092H27.216V46.516ZM28.152 44.844H28.72V49.764H28.152V44.844ZM27.064 50.084C27.68 49.828 28.624 49.404 29.536 48.98L29.664 49.508C28.848 49.924 27.976 50.356 27.296 50.684L27.064 50.084ZM32.696 49.244L33.12 49.468C32.816 50.484 32.152 51.62 31.424 52.172C31.32 52.052 31.136 51.916 30.984 51.828C31.736 51.324 32.408 50.236 32.696 49.244ZM31.448 49.268L31.856 49.508C31.448 50.38 30.608 51.332 29.832 51.828C29.736 51.7 29.568 51.548 29.424 51.46C30.216 51.028 31.056 50.108 31.448 49.268Z" fill="#929292"/>
<path d="M11 13.2656C11 12.5643 11.5643 12 12.2656 12H14.665C15.8252 12 16.8535 12.675 17.3334 13.6875H39.0072C40.3941 13.6875 41.4066 15.0059 41.0428 16.3453L38.8807 24.3768C38.4324 26.0326 36.9295 27.1875 35.2156 27.1875H20.0018L20.2865 28.6904C20.4025 29.2863 20.9246 29.7188 21.5311 29.7188H36.7344C37.4357 29.7188 38 30.283 38 30.9844C38 31.6857 37.4357 32.25 36.7344 32.25H21.5311C19.7064 32.25 18.1402 30.9527 17.8027 29.165L15.0816 14.874C15.0447 14.6736 14.8707 14.5312 14.665 14.5312H12.2656C11.5643 14.5312 11 13.967 11 13.2656ZM17.75 36.4688C17.75 36.1363 17.8155 35.8072 17.9427 35.5001C18.0699 35.193 18.2563 34.9139 18.4914 34.6789C18.7264 34.4438 19.0055 34.2574 19.3126 34.1302C19.6197 34.003 19.9488 33.9375 20.2812 33.9375C20.6137 33.9375 20.9428 34.003 21.2499 34.1302C21.557 34.2574 21.8361 34.4438 22.0711 34.6789C22.3062 34.9139 22.4926 35.193 22.6198 35.5001C22.747 35.8072 22.8125 36.1363 22.8125 36.4688C22.8125 36.8012 22.747 37.1303 22.6198 37.4374C22.4926 37.7445 22.3062 38.0236 22.0711 38.2586C21.8361 38.4937 21.557 38.6801 21.2499 38.8073C20.9428 38.9345 20.6137 39 20.2812 39C19.9488 39 19.6197 38.9345 19.3126 38.8073C19.0055 38.6801 18.7264 38.4937 18.4914 38.2586C18.2563 38.0236 18.0699 37.7445 17.9427 37.4374C17.8155 37.1303 17.75 36.8012 17.75 36.4688ZM35.4688 33.9375C36.1401 33.9375 36.7839 34.2042 37.2586 34.6789C37.7333 35.1536 38 35.7974 38 36.4688C38 37.1401 37.7333 37.7839 37.2586 38.2586C36.7839 38.7333 36.1401 39 35.4688 39C34.7974 39 34.1536 38.7333 33.6789 38.2586C33.2042 37.7839 32.9375 37.1401 32.9375 36.4688C32.9375 35.7974 33.2042 35.1536 33.6789 34.6789C34.1536 34.2042 34.7974 33.9375 35.4688 33.9375Z" fill="#929292"/>
</svg>
