<svg width="54" height="55" viewBox="0 0 54 55" fill="none" xmlns="http://www.w3.org/2000/svg">
<path d="M24.824 45.308L25.28 44.996C25.752 45.396 26.312 45.964 26.576 46.332L26.08 46.684C25.84 46.3 25.296 45.724 24.824 45.308ZM19.64 47.148H26.768V47.724H19.64V47.148ZM19.52 49.5C20.472 49.324 21.976 49.004 23.384 48.7L23.432 49.244C22.12 49.548 20.704 49.876 19.696 50.1L19.52 49.5ZM21.36 45.596H21.96V51.372C21.96 51.764 21.864 51.94 21.608 52.036C21.352 52.132 20.928 52.156 20.264 52.148C20.232 51.988 20.128 51.716 20.04 51.54C20.552 51.564 21.024 51.556 21.168 51.548C21.312 51.548 21.36 51.508 21.36 51.364V45.596ZM22.88 44.876L23.304 45.38C22.376 45.7 21.016 45.948 19.872 46.108C19.84 45.972 19.768 45.748 19.688 45.612C20.816 45.436 22.112 45.164 22.88 44.876ZM23.68 44.852H24.304C24.288 48.524 25.072 51.564 26.048 51.564C26.264 51.564 26.36 51.148 26.408 50.116C26.536 50.252 26.752 50.388 26.92 50.452C26.808 51.78 26.592 52.172 25.992 52.172C24.424 52.172 23.712 48.66 23.68 44.852ZM25.848 48.092L26.384 48.316C25.6 49.78 24.28 51.068 22.808 51.844C22.712 51.692 22.544 51.5 22.392 51.364C23.816 50.676 25.136 49.444 25.848 48.092ZM27.848 46.068H30.28V51.3H27.848V50.756H29.72V46.604H27.848V46.068ZM27.488 46.068H28.048V51.94H27.488V46.068ZM27.808 48.292H30.016V48.828H27.808V48.292ZM28.712 44.764L29.36 44.884C29.2 45.38 29 45.932 28.84 46.292L28.36 46.172C28.496 45.788 28.648 45.18 28.712 44.764ZM31.416 46.044H33.872V46.604H31.416V46.044ZM33.664 46.044H34.224C34.224 46.044 34.224 46.268 34.224 46.356C34.096 50.028 33.984 51.268 33.664 51.66C33.488 51.892 33.304 51.964 33.024 51.988C32.752 52.02 32.28 52.004 31.832 51.98C31.816 51.804 31.744 51.556 31.632 51.396C32.152 51.436 32.632 51.444 32.816 51.444C32.976 51.444 33.072 51.42 33.16 51.316C33.424 51.028 33.552 49.7 33.664 46.172V46.044ZM31.584 44.748L32.16 44.884C31.864 46.076 31.392 47.252 30.84 48.012C30.736 47.916 30.488 47.748 30.344 47.668C30.888 46.964 31.328 45.86 31.584 44.748ZM31.216 48.124L31.68 47.852C32.136 48.42 32.688 49.196 32.944 49.668L32.432 49.988C32.192 49.5 31.656 48.708 31.216 48.124Z" fill="#CD5151"/>
<path d="M26.8125 25.5C28.6027 25.5 30.3196 24.7888 31.5855 23.523C32.8513 22.2571 33.5625 20.5402 33.5625 18.75C33.5625 16.9598 32.8513 15.2429 31.5855 13.977C30.3196 12.7112 28.6027 12 26.8125 12C25.0223 12 23.3054 12.7112 22.0395 13.977C20.7737 15.2429 20.0625 16.9598 20.0625 18.75C20.0625 20.5402 20.7737 22.2571 22.0395 23.523C23.3054 24.7888 25.0223 25.5 26.8125 25.5ZM24.4025 28.0312C19.2082 28.0312 15 32.2395 15 37.4338C15 38.2986 15.7014 39 16.5662 39H37.0588C37.9236 39 38.625 38.2986 38.625 37.4338C38.625 32.2395 34.4168 28.0312 29.2225 28.0312H24.4025Z" fill="#CD5151"/>
</svg>
