<svg width="54" height="55" viewBox="0 0 54 55" fill="none" xmlns="http://www.w3.org/2000/svg">
<path d="M22.752 45.924L26.688 45.54L26.736 46.028L22.808 46.412L22.752 45.924ZM22.656 49.484L26.792 49.092L26.848 49.58L22.696 49.98L22.656 49.484ZM23.592 44.78H24.136C24.272 46.508 25.384 47.86 26.152 47.852C26.344 47.852 26.4 47.676 26.432 47.172C26.552 47.276 26.72 47.364 26.864 47.412C26.768 48.172 26.568 48.38 26.12 48.38C25.008 48.38 23.752 46.788 23.592 44.78ZM23.624 48.332H24.176C24.288 50.196 25.296 51.62 26.16 51.604C26.368 51.604 26.424 51.412 26.464 50.86C26.584 50.972 26.76 51.068 26.904 51.116C26.808 51.924 26.608 52.14 26.128 52.14C24.888 52.14 23.76 50.468 23.624 48.332ZM25.712 46.268L26.216 46.46C25.512 47.332 24.176 47.924 22.952 48.284C22.88 48.172 22.704 47.94 22.592 47.836C23.816 47.548 25.088 47.02 25.712 46.268ZM25.832 49.812L26.368 50.004C25.592 51.036 24.112 51.7 22.696 52.092C22.632 51.972 22.456 51.716 22.344 51.604C23.752 51.292 25.16 50.708 25.832 49.812ZM24.848 45.116L25.128 44.804C25.48 44.916 25.936 45.124 26.168 45.292L25.888 45.652C25.664 45.468 25.208 45.252 24.848 45.116ZM24.728 48.54L25.048 48.228C25.416 48.372 25.872 48.604 26.104 48.796L25.768 49.14C25.544 48.948 25.096 48.692 24.728 48.54ZM20.064 46.764H22.312V47.284H20.064V46.764ZM19.632 48.132H22.56V48.66H19.632V48.132ZM19.816 49.188L20.232 49.084C20.392 49.572 20.52 50.188 20.552 50.604L20.104 50.716C20.096 50.3 19.968 49.676 19.816 49.188ZM19.56 51.34C20.336 51.212 21.504 50.98 22.632 50.748L22.672 51.252C21.616 51.484 20.512 51.724 19.68 51.9L19.56 51.34ZM22.04 49.012L22.504 49.132C22.368 49.62 22.232 50.196 22.096 50.572L21.704 50.46C21.824 50.068 21.968 49.436 22.04 49.012ZM20.888 46.956H21.416V51.316L20.888 51.404V46.956ZM20.864 44.788H21.176V44.916H21.352V45.068C21.04 45.684 20.52 46.532 19.728 47.228C19.64 47.108 19.464 46.932 19.352 46.852C20.08 46.244 20.592 45.428 20.864 44.788ZM20.96 44.788H21.408C21.88 45.212 22.472 45.828 22.752 46.228L22.352 46.684C22.08 46.276 21.536 45.612 21.072 45.212H20.96V44.788ZM29.056 44.74L29.68 44.916C29.176 46.164 28.392 47.348 27.576 48.116C27.456 48.004 27.2 47.788 27.04 47.692C27.872 46.996 28.608 45.884 29.056 44.74ZM28.96 45.7H33.472V46.268H28.672L28.96 45.7ZM33.28 45.7H33.88C33.88 45.7 33.88 45.9 33.88 45.988C33.8 48.684 33.72 49.636 33.488 49.932C33.344 50.116 33.184 50.18 32.944 50.204C32.72 50.228 32.32 50.22 31.888 50.204C31.88 50.028 31.816 49.788 31.72 49.628C32.128 49.668 32.512 49.676 32.664 49.676C32.792 49.676 32.88 49.652 32.944 49.564C33.128 49.356 33.208 48.436 33.28 45.82V45.7ZM28.536 49.028H31.024V47.66H28.368V47.124H31.624V49.564H28.536V49.028ZM28.248 49.028H28.848V51.084C28.848 51.412 29.008 51.484 29.872 51.484C30.28 51.484 32.352 51.484 32.888 51.484C33.616 51.484 33.736 51.324 33.808 50.404C33.96 50.492 34.216 50.588 34.384 50.62C34.264 51.772 34.032 52.052 32.896 52.052C32.6 52.052 30.184 52.052 29.904 52.052C28.624 52.052 28.248 51.876 28.248 51.084V49.028Z" fill="#CD5151"/>
<path d="M16.375 14C14.5135 14 13 15.5135 13 17.375V34.25C13 36.1115 14.5135 37.625 16.375 37.625H36.625C38.4865 37.625 40 36.1115 40 34.25V22.4375C40 20.576 38.4865 19.0625 36.625 19.0625H17.2188C16.7547 19.0625 16.375 18.6828 16.375 18.2188C16.375 17.7547 16.7547 17.375 17.2188 17.375H36.625C37.5584 17.375 38.3125 16.6209 38.3125 15.6875C38.3125 14.7541 37.5584 14 36.625 14H16.375ZM34.9375 26.6562C35.3851 26.6562 35.8143 26.834 36.1307 27.1505C36.4472 27.467 36.625 27.8962 36.625 28.3438C36.625 28.7913 36.4472 29.2205 36.1307 29.537C35.8143 29.8535 35.3851 30.0312 34.9375 30.0312C34.4899 30.0312 34.0607 29.8535 33.7443 29.537C33.4278 29.2205 33.25 28.7913 33.25 28.3438C33.25 27.8962 33.4278 27.467 33.7443 27.1505C34.0607 26.834 34.4899 26.6562 34.9375 26.6562Z" fill="#CD5151"/>
</svg>
