<svg width="84" height="84" viewBox="0 0 84 84" fill="none" xmlns="http://www.w3.org/2000/svg">
<g filter="url(#filter0_d_220_3180)">
<rect x="4" y="2" width="76" height="76" rx="38" fill="white"/>
<path d="M42 31C42 30.2899 42.5757 29.7143 43.2857 29.7143H53.5714C54.2814 29.7143 54.8571 30.2899 54.8571 31C54.8571 31.7101 54.2814 32.2857 53.5714 32.2857H43.2857C42.5757 32.2857 42 31.7101 42 31Z" fill="#CD5151"/>
<path d="M43.2857 34.8571C42.5757 34.8571 42 35.4329 42 36.1429C42 36.8528 42.5757 37.4286 43.2857 37.4286H48.4286C49.1385 37.4286 49.7143 36.8528 49.7143 36.1429C49.7143 35.4329 49.1385 34.8571 48.4286 34.8571H43.2857Z" fill="#CD5151"/>
<path fill-rule="evenodd" clip-rule="evenodd" d="M40.7143 22C38.5841 22 36.8571 23.7269 36.8571 25.8571V29.7143H27.8571C25.7269 29.7143 24 31.4412 24 33.5714V54.1429C24 56.273 25.7269 58 27.8571 58H43.2857C45.4159 58 47.1429 56.273 47.1429 54.1429V50.2857H56.1429C58.273 50.2857 60 48.5587 60 46.4286V25.8571C60 23.7269 58.273 22 56.1429 22H40.7143ZM44.5714 50.2857H40.7143C38.5841 50.2857 36.8571 48.5587 36.8571 46.4286V32.2857H27.8571C27.1471 32.2857 26.5714 32.8614 26.5714 33.5714V54.1429C26.5714 54.8528 27.1471 55.4286 27.8571 55.4286H43.2857C43.9957 55.4286 44.5714 54.8528 44.5714 54.1429V50.2857ZM39.4286 25.8571C39.4286 25.1471 40.0043 24.5714 40.7143 24.5714H56.1429C56.8528 24.5714 57.4286 25.1471 57.4286 25.8571V46.4286C57.4286 47.1385 56.8528 47.7143 56.1429 47.7143H40.7143C40.0043 47.7143 39.4286 47.1385 39.4286 46.4286V25.8571Z" fill="#CD5151"/>
</g>
<defs>
<filter id="filter0_d_220_3180" x="0" y="0" width="84" height="84" filterUnits="userSpaceOnUse" color-interpolation-filters="sRGB">
<feFlood flood-opacity="0" result="BackgroundImageFix"/>
<feColorMatrix in="SourceAlpha" type="matrix" values="0 0 0 0 0 0 0 0 0 0 0 0 0 0 0 0 0 0 127 0" result="hardAlpha"/>
<feOffset dy="2"/>
<feGaussianBlur stdDeviation="2"/>
<feComposite in2="hardAlpha" operator="out"/>
<feColorMatrix type="matrix" values="0 0 0 0 0 0 0 0 0 0 0 0 0 0 0 0 0 0 0.1 0"/>
<feBlend mode="normal" in2="BackgroundImageFix" result="effect1_dropShadow_220_3180"/>
<feBlend mode="normal" in="SourceGraphic" in2="effect1_dropShadow_220_3180" result="shape"/>
</filter>
</defs>
</svg>
