<svg width="70" height="70" viewBox="0 0 70 70" fill="none" xmlns="http://www.w3.org/2000/svg">
<circle cx="35" cy="35" r="35" fill="#3D3D3D" fill-opacity="0.6"/>
<path d="M22.1588 42H47.8412C50.9421 42 52.5 40.4182 52.5 37.2852V18.7148C52.5 15.5818 50.9421 14 47.8412 14H22.1588C19.0727 14 17.5 15.5665 17.5 18.7148V37.2852C17.5 40.4335 19.0727 42 22.1588 42ZM28.6276 28.3726C26.6098 28.3726 24.9628 26.6844 24.9628 24.616C24.9628 22.5627 26.6098 20.8593 28.6276 20.8593C30.6305 20.8593 32.2774 22.5627 32.2774 24.616C32.2774 26.6844 30.6305 28.3726 28.6276 28.3726ZM22.1884 39.5514C20.7641 39.5514 19.8887 38.6692 19.8887 37.1787V36.251L24.4436 32.1749C25.0964 31.5818 25.8086 31.2776 26.4762 31.2776C27.1884 31.2776 27.9451 31.5818 28.5979 32.2053L31.4465 34.8213L38.5237 28.3726C39.2655 27.7034 40.0816 27.3992 40.9124 27.3992C41.7284 27.3992 42.5741 27.7186 43.2863 28.3879L50.1111 34.8669V37.2091C50.1111 38.6692 49.2211 39.5514 47.8115 39.5514H22.1884Z" fill="white"/>
<path d="M29.42 53.496H33.956V54.324H29.42V53.496ZM29.432 56.4H33.968V57.228H29.432V56.4ZM29.42 59.316H33.968V60.144H29.42V59.316ZM28.976 50.628H34.4V60.852H33.5V51.492H29.84V60.888H28.976V50.628ZM23.912 52.5H28.448V53.364H23.912V52.5ZM25.868 49.92H26.732V60.948H25.868V49.92ZM25.82 53.028L26.42 53.232C25.988 55.176 25.064 57.516 24.116 58.728C24.02 58.476 23.792 58.116 23.636 57.912C24.536 56.832 25.448 54.768 25.82 53.028ZM26.648 54.348C26.996 54.684 28.232 56.124 28.52 56.46L27.956 57.204C27.62 56.616 26.612 55.272 26.192 54.78L26.648 54.348ZM38.516 53.292H45.992V53.94H38.516V53.292ZM38.228 58.272H46.088V58.956H38.228V58.272ZM35.96 53.784L36.368 53.148C37.052 53.4 37.916 53.82 38.348 54.144L37.928 54.828C37.496 54.504 36.644 54.06 35.96 53.784ZM43.784 52.704L44.228 52.2C44.72 52.38 45.368 52.692 45.704 52.932L45.236 53.496C44.912 53.256 44.288 52.908 43.784 52.704ZM35.3 56.016L35.708 55.38C36.392 55.596 37.292 55.98 37.748 56.28L37.352 56.988C36.896 56.688 36.008 56.268 35.3 56.016ZM39.392 59.34L40.016 58.944C40.544 59.292 41.108 59.82 41.372 60.24L40.712 60.684C40.484 60.276 39.92 59.724 39.392 59.34ZM39.728 56.316V57.06H44.756V56.316H39.728ZM39.728 55.08V55.8H44.756V55.08H39.728ZM38.96 54.54H45.56V57.6H38.96V54.54ZM35.684 60.24C36.32 59.496 37.232 58.212 37.94 57.096L38.504 57.66C37.856 58.704 37.04 59.916 36.356 60.828L35.684 60.24ZM43.112 57.528H43.964V60.132C43.964 60.552 43.88 60.732 43.532 60.852C43.208 60.96 42.68 60.96 41.84 60.96C41.792 60.744 41.672 60.48 41.564 60.288C42.188 60.312 42.74 60.3 42.896 60.288C43.064 60.276 43.112 60.24 43.112 60.108V57.528ZM41.756 52.692H42.584V57.336H41.756V52.692ZM36.788 50.952H40.46V51.636H36.788V50.952ZM41.372 50.952H46.124V51.636H41.372V50.952ZM37.088 49.92L37.916 50.136C37.46 51.228 36.704 52.32 35.996 53.016C35.828 52.872 35.468 52.632 35.264 52.524C36.008 51.876 36.68 50.904 37.088 49.92ZM41.624 49.92L42.464 50.124C41.984 51.228 41.144 52.236 40.316 52.884C40.16 52.752 39.776 52.536 39.56 52.428C40.424 51.84 41.204 50.916 41.624 49.92ZM37.568 51.528L38.288 51.312C38.6 51.732 38.948 52.296 39.104 52.668L38.348 52.92C38.216 52.548 37.88 51.96 37.568 51.528ZM42.26 51.468L42.944 51.216C43.316 51.612 43.724 52.164 43.916 52.548L43.196 52.836C43.028 52.452 42.632 51.876 42.26 51.468Z" fill="white"/>
</svg>
