<svg width="190" height="99" viewBox="0 0 190 99" fill="none" xmlns="http://www.w3.org/2000/svg">
<g filter="url(#filter0_d_432_3312)">
<rect x="16" y="16" width="158" height="67" rx="10" fill="url(#paint0_linear_432_3312)"/>
<mask id="path-2-outside-1_432_3312" maskUnits="userSpaceOnUse" x="47" y="37" width="95" height="24" fill="black">
<rect fill="white" x="47" y="37" width="95" height="24"/>
<path d="M57.44 37.624H60.368V57.424C60.368 58.84 60.008 59.416 59.096 59.824C58.16 60.184 56.864 60.232 54.824 60.232C54.68 59.56 54.224 58.552 53.864 57.976C55.016 58.024 56.432 58 56.84 58C57.296 57.976 57.44 57.832 57.44 57.424V37.624ZM48.44 39.184H69.56V41.464H48.44V39.184ZM53.648 44.248V45.4H64.256V44.248H53.648ZM50.912 42.424H67.208V47.224H50.912V42.424ZM50.312 48.28H67.616V57.664H64.688V50.248H50.312V48.28ZM47.888 51.256H70.112V53.44H47.888V51.256ZM50.12 54.568H66.248V56.656H50.12V54.568ZM72.08 41.176H93.92V43.792H72.08V41.176ZM74.912 49.36H81.152V51.472H74.912V49.36ZM74.912 53.032H81.152V55.168H74.912V53.032ZM84.968 45.688H87.632V55.528H84.968V45.688ZM80.144 45.448H82.928V57.328C82.928 58.552 82.688 59.224 81.872 59.632C81.08 60.064 79.976 60.088 78.488 60.088C78.344 59.368 77.936 58.312 77.576 57.64C78.464 57.688 79.448 57.688 79.736 57.664C80.048 57.664 80.144 57.568 80.144 57.28V45.448ZM89.792 45.04H92.624V57.016C92.624 58.408 92.36 59.152 91.4 59.584C90.488 60.016 89.192 60.112 87.416 60.088C87.272 59.32 86.816 58.096 86.408 57.352C87.632 57.424 88.88 57.424 89.288 57.4C89.672 57.4 89.792 57.304 89.792 56.968V45.04ZM75.392 38.56L78.128 37.6C78.992 38.536 79.952 39.808 80.36 40.72L77.456 41.752C77.12 40.888 76.232 39.52 75.392 38.56ZM87.704 37.552L90.848 38.488C89.864 40.024 88.808 41.56 87.968 42.616L85.376 41.728C86.192 40.6 87.176 38.848 87.704 37.552ZM73.4 45.448H80.96V47.848H76.112V60.016H73.4V45.448ZM96.176 38.632H103.832V41.128H96.176V38.632ZM95.624 46.36H104.744V48.904H95.624V46.36ZM99.2 47.752H101.96V57.088C101.96 58.408 101.744 59.176 100.832 59.608C99.968 60.064 98.768 60.112 97.136 60.112C97.04 59.296 96.656 58.12 96.272 57.352C97.304 57.376 98.432 57.376 98.768 57.376C99.104 57.376 99.2 57.304 99.2 57.016V47.752ZM102.968 38.632H103.568L104.096 38.488L105.848 39.736C104.672 41.632 102.968 43.816 101.432 45.184C101.048 44.68 100.304 43.888 99.824 43.48C101.024 42.352 102.368 40.432 102.968 39.16V38.632ZM103.904 46.36H104.264L104.648 46.264L106.424 46.672C105.92 48.688 105.248 50.944 104.72 52.384L102.584 51.904C103.016 50.608 103.568 48.448 103.904 46.696V46.36ZM96.608 43.84L98.048 41.944C100.016 42.856 102.56 44.32 103.784 45.472L102.224 47.608C101.072 46.408 98.6 44.824 96.608 43.84ZM105.728 38.56H118.016V40.984H105.728V38.56ZM109.184 48.184V49.72H114.536V48.184H109.184ZM109.184 51.688V53.224H114.536V51.688H109.184ZM109.184 44.704V46.216H114.536V44.704H109.184ZM106.544 42.592H117.296V55.336H106.544V42.592ZM110.408 39.88L113.696 40.24C113.24 41.752 112.736 43.264 112.328 44.296L109.832 43.84C110.072 42.688 110.336 41.056 110.408 39.88ZM108.896 55.36L111.248 56.896C109.928 58.168 107.648 59.512 105.776 60.232C105.32 59.704 104.48 58.84 103.856 58.36C105.728 57.688 107.84 56.392 108.896 55.36ZM112.376 56.968L114.512 55.528C115.856 56.392 117.68 57.712 118.616 58.624L116.36 60.232C115.52 59.344 113.744 57.928 112.376 56.968ZM130.832 48.496L133.136 47.32C134.384 48.976 135.752 51.208 136.28 52.744L133.76 54.04C133.328 52.552 132.056 50.224 130.832 48.496ZM131.624 41.704H140.24V44.416H131.624V41.704ZM139.016 41.704H141.8C141.8 41.704 141.8 42.664 141.776 43.024C141.416 53.608 141.104 57.424 140.096 58.696C139.424 59.608 138.776 59.872 137.768 60.04C136.88 60.16 135.416 60.16 134 60.088C133.952 59.272 133.568 58.024 133.04 57.208C134.552 57.328 135.944 57.328 136.568 57.328C137.048 57.328 137.336 57.256 137.6 56.92C138.392 56.104 138.728 52.048 139.016 42.28V41.704ZM131.768 37.6L134.744 38.248C133.736 41.824 132.08 45.352 130.256 47.536C129.68 47.056 128.408 46.192 127.688 45.784C129.512 43.888 130.976 40.744 131.768 37.6ZM123.32 37.648L125.864 38.536C124.88 40.408 123.752 42.544 122.816 43.864L120.872 43.072C121.736 41.632 122.768 39.328 123.32 37.648ZM126.2 40.48L128.624 41.488C126.848 44.248 124.496 47.584 122.648 49.624L120.896 48.736C122.744 46.576 124.928 43.048 126.2 40.48ZM119.624 43.336L120.968 41.344C122.264 42.448 123.752 43.984 124.376 45.04L122.912 47.296C122.312 46.144 120.848 44.488 119.624 43.336ZM125.6 46.264L127.64 45.376C128.6 46.984 129.56 49.072 129.872 50.464L127.688 51.472C127.4 50.104 126.512 47.92 125.6 46.264ZM119.6 48.208C121.832 48.136 125.144 47.992 128.36 47.824V50.104C125.336 50.344 122.216 50.56 119.84 50.704L119.6 48.208ZM126.032 52.288L128.144 51.592C128.768 53.032 129.416 54.904 129.704 56.128L127.448 56.944C127.232 55.696 126.608 53.752 126.032 52.288ZM120.632 51.736L123.008 52.144C122.768 54.448 122.24 56.848 121.544 58.384C121.04 58.072 119.96 57.568 119.36 57.328C120.056 55.912 120.44 53.776 120.632 51.736ZM123.416 49.48H125.984V60.184H123.416V49.48Z"/>
</mask>
<path d="M57.44 37.624H60.368V57.424C60.368 58.84 60.008 59.416 59.096 59.824C58.16 60.184 56.864 60.232 54.824 60.232C54.68 59.56 54.224 58.552 53.864 57.976C55.016 58.024 56.432 58 56.84 58C57.296 57.976 57.44 57.832 57.44 57.424V37.624ZM48.44 39.184H69.56V41.464H48.44V39.184ZM53.648 44.248V45.4H64.256V44.248H53.648ZM50.912 42.424H67.208V47.224H50.912V42.424ZM50.312 48.28H67.616V57.664H64.688V50.248H50.312V48.28ZM47.888 51.256H70.112V53.44H47.888V51.256ZM50.12 54.568H66.248V56.656H50.12V54.568ZM72.08 41.176H93.92V43.792H72.08V41.176ZM74.912 49.36H81.152V51.472H74.912V49.36ZM74.912 53.032H81.152V55.168H74.912V53.032ZM84.968 45.688H87.632V55.528H84.968V45.688ZM80.144 45.448H82.928V57.328C82.928 58.552 82.688 59.224 81.872 59.632C81.08 60.064 79.976 60.088 78.488 60.088C78.344 59.368 77.936 58.312 77.576 57.64C78.464 57.688 79.448 57.688 79.736 57.664C80.048 57.664 80.144 57.568 80.144 57.28V45.448ZM89.792 45.04H92.624V57.016C92.624 58.408 92.36 59.152 91.4 59.584C90.488 60.016 89.192 60.112 87.416 60.088C87.272 59.32 86.816 58.096 86.408 57.352C87.632 57.424 88.88 57.424 89.288 57.4C89.672 57.4 89.792 57.304 89.792 56.968V45.04ZM75.392 38.56L78.128 37.6C78.992 38.536 79.952 39.808 80.36 40.72L77.456 41.752C77.12 40.888 76.232 39.52 75.392 38.56ZM87.704 37.552L90.848 38.488C89.864 40.024 88.808 41.56 87.968 42.616L85.376 41.728C86.192 40.6 87.176 38.848 87.704 37.552ZM73.4 45.448H80.96V47.848H76.112V60.016H73.4V45.448ZM96.176 38.632H103.832V41.128H96.176V38.632ZM95.624 46.36H104.744V48.904H95.624V46.36ZM99.2 47.752H101.96V57.088C101.96 58.408 101.744 59.176 100.832 59.608C99.968 60.064 98.768 60.112 97.136 60.112C97.04 59.296 96.656 58.12 96.272 57.352C97.304 57.376 98.432 57.376 98.768 57.376C99.104 57.376 99.2 57.304 99.2 57.016V47.752ZM102.968 38.632H103.568L104.096 38.488L105.848 39.736C104.672 41.632 102.968 43.816 101.432 45.184C101.048 44.68 100.304 43.888 99.824 43.48C101.024 42.352 102.368 40.432 102.968 39.16V38.632ZM103.904 46.36H104.264L104.648 46.264L106.424 46.672C105.92 48.688 105.248 50.944 104.72 52.384L102.584 51.904C103.016 50.608 103.568 48.448 103.904 46.696V46.36ZM96.608 43.84L98.048 41.944C100.016 42.856 102.56 44.32 103.784 45.472L102.224 47.608C101.072 46.408 98.6 44.824 96.608 43.84ZM105.728 38.56H118.016V40.984H105.728V38.56ZM109.184 48.184V49.72H114.536V48.184H109.184ZM109.184 51.688V53.224H114.536V51.688H109.184ZM109.184 44.704V46.216H114.536V44.704H109.184ZM106.544 42.592H117.296V55.336H106.544V42.592ZM110.408 39.88L113.696 40.24C113.24 41.752 112.736 43.264 112.328 44.296L109.832 43.84C110.072 42.688 110.336 41.056 110.408 39.88ZM108.896 55.36L111.248 56.896C109.928 58.168 107.648 59.512 105.776 60.232C105.32 59.704 104.48 58.84 103.856 58.36C105.728 57.688 107.84 56.392 108.896 55.36ZM112.376 56.968L114.512 55.528C115.856 56.392 117.68 57.712 118.616 58.624L116.36 60.232C115.52 59.344 113.744 57.928 112.376 56.968ZM130.832 48.496L133.136 47.32C134.384 48.976 135.752 51.208 136.28 52.744L133.76 54.04C133.328 52.552 132.056 50.224 130.832 48.496ZM131.624 41.704H140.24V44.416H131.624V41.704ZM139.016 41.704H141.8C141.8 41.704 141.8 42.664 141.776 43.024C141.416 53.608 141.104 57.424 140.096 58.696C139.424 59.608 138.776 59.872 137.768 60.04C136.88 60.16 135.416 60.16 134 60.088C133.952 59.272 133.568 58.024 133.04 57.208C134.552 57.328 135.944 57.328 136.568 57.328C137.048 57.328 137.336 57.256 137.6 56.92C138.392 56.104 138.728 52.048 139.016 42.28V41.704ZM131.768 37.6L134.744 38.248C133.736 41.824 132.08 45.352 130.256 47.536C129.68 47.056 128.408 46.192 127.688 45.784C129.512 43.888 130.976 40.744 131.768 37.6ZM123.32 37.648L125.864 38.536C124.88 40.408 123.752 42.544 122.816 43.864L120.872 43.072C121.736 41.632 122.768 39.328 123.32 37.648ZM126.2 40.48L128.624 41.488C126.848 44.248 124.496 47.584 122.648 49.624L120.896 48.736C122.744 46.576 124.928 43.048 126.2 40.48ZM119.624 43.336L120.968 41.344C122.264 42.448 123.752 43.984 124.376 45.04L122.912 47.296C122.312 46.144 120.848 44.488 119.624 43.336ZM125.6 46.264L127.64 45.376C128.6 46.984 129.56 49.072 129.872 50.464L127.688 51.472C127.4 50.104 126.512 47.92 125.6 46.264ZM119.6 48.208C121.832 48.136 125.144 47.992 128.36 47.824V50.104C125.336 50.344 122.216 50.56 119.84 50.704L119.6 48.208ZM126.032 52.288L128.144 51.592C128.768 53.032 129.416 54.904 129.704 56.128L127.448 56.944C127.232 55.696 126.608 53.752 126.032 52.288ZM120.632 51.736L123.008 52.144C122.768 54.448 122.24 56.848 121.544 58.384C121.04 58.072 119.96 57.568 119.36 57.328C120.056 55.912 120.44 53.776 120.632 51.736ZM123.416 49.48H125.984V60.184H123.416V49.48Z" fill="white"/>
<path d="M57.44 37.624V37.524H57.34V37.624H57.44ZM60.368 37.624H60.468V37.524H60.368V37.624ZM59.096 59.824L59.1319 59.9175L59.1368 59.9153L59.096 59.824ZM54.824 60.232L54.7262 60.253L54.7432 60.332H54.824V60.232ZM53.864 57.976L53.8682 57.8761L53.6787 57.8682L53.7792 58.029L53.864 57.976ZM56.84 58V58.1001L56.8453 58.0999L56.84 58ZM48.44 39.184V39.084H48.34V39.184H48.44ZM69.56 39.184H69.66V39.084H69.56V39.184ZM69.56 41.464V41.564H69.66V41.464H69.56ZM48.44 41.464H48.34V41.564H48.44V41.464ZM53.648 44.248V44.148H53.548V44.248H53.648ZM53.648 45.4H53.548V45.5H53.648V45.4ZM64.256 45.4V45.5H64.356V45.4H64.256ZM64.256 44.248H64.356V44.148H64.256V44.248ZM50.912 42.424V42.324H50.812V42.424H50.912ZM67.208 42.424H67.308V42.324H67.208V42.424ZM67.208 47.224V47.324H67.308V47.224H67.208ZM50.912 47.224H50.812V47.324H50.912V47.224ZM50.312 48.28V48.18H50.212V48.28H50.312ZM67.616 48.28H67.716V48.18H67.616V48.28ZM67.616 57.664V57.764H67.716V57.664H67.616ZM64.688 57.664H64.588V57.764H64.688V57.664ZM64.688 50.248H64.788V50.148H64.688V50.248ZM50.312 50.248H50.212V50.348H50.312V50.248ZM47.888 51.256V51.156H47.788V51.256H47.888ZM70.112 51.256H70.212V51.156H70.112V51.256ZM70.112 53.44V53.54H70.212V53.44H70.112ZM47.888 53.44H47.788V53.54H47.888V53.44ZM50.12 54.568V54.468H50.02V54.568H50.12ZM66.248 54.568H66.348V54.468H66.248V54.568ZM66.248 56.656V56.756H66.348V56.656H66.248ZM50.12 56.656H50.02V56.756H50.12V56.656ZM57.44 37.724H60.368V37.524H57.44V37.724ZM60.268 37.624V57.424H60.468V37.624H60.268ZM60.268 57.424C60.268 58.1258 60.1783 58.6038 59.9863 58.9539C59.7963 59.3005 59.499 59.5342 59.0552 59.7327L59.1368 59.9153C59.605 59.7058 59.9437 59.4475 60.1617 59.0501C60.3777 58.6562 60.468 58.1382 60.468 57.424H60.268ZM59.0601 59.7307C58.1449 60.0827 56.8693 60.132 54.824 60.132V60.332C56.8587 60.332 58.1751 60.2853 59.1319 59.9173L59.0601 59.7307ZM54.9218 60.211C54.7747 59.5247 54.3131 58.5058 53.9488 57.923L53.7792 58.029C54.1349 58.5982 54.5853 59.5953 54.7262 60.253L54.9218 60.211ZM53.8598 58.0759C55.0146 58.124 56.4348 58.1 56.84 58.1V57.9C56.4292 57.9 55.0174 57.924 53.8682 57.8761L53.8598 58.0759ZM56.8453 58.0999C57.0777 58.0876 57.2599 58.0446 57.3805 57.9279C57.5036 57.8087 57.54 57.6355 57.54 57.424H57.34C57.34 57.6205 57.3044 57.7233 57.2415 57.7841C57.1761 57.8474 57.0583 57.8884 56.8347 57.9001L56.8453 58.0999ZM57.54 57.424V37.624H57.34V57.424H57.54ZM48.44 39.284H69.56V39.084H48.44V39.284ZM69.46 39.184V41.464H69.66V39.184H69.46ZM69.56 41.364H48.44V41.564H69.56V41.364ZM48.54 41.464V39.184H48.34V41.464H48.54ZM53.548 44.248V45.4H53.748V44.248H53.548ZM53.648 45.5H64.256V45.3H53.648V45.5ZM64.356 45.4V44.248H64.156V45.4H64.356ZM64.256 44.148H53.648V44.348H64.256V44.148ZM50.912 42.524H67.208V42.324H50.912V42.524ZM67.108 42.424V47.224H67.308V42.424H67.108ZM67.208 47.124H50.912V47.324H67.208V47.124ZM51.012 47.224V42.424H50.812V47.224H51.012ZM50.312 48.38H67.616V48.18H50.312V48.38ZM67.516 48.28V57.664H67.716V48.28H67.516ZM67.616 57.564H64.688V57.764H67.616V57.564ZM64.788 57.664V50.248H64.588V57.664H64.788ZM64.688 50.148H50.312V50.348H64.688V50.148ZM50.412 50.248V48.28H50.212V50.248H50.412ZM47.888 51.356H70.112V51.156H47.888V51.356ZM70.012 51.256V53.44H70.212V51.256H70.012ZM70.112 53.34H47.888V53.54H70.112V53.34ZM47.988 53.44V51.256H47.788V53.44H47.988ZM50.12 54.668H66.248V54.468H50.12V54.668ZM66.148 54.568V56.656H66.348V54.568H66.148ZM66.248 56.556H50.12V56.756H66.248V56.556ZM50.22 56.656V54.568H50.02V56.656H50.22ZM72.08 41.176V41.076H71.98V41.176H72.08ZM93.92 41.176H94.02V41.076H93.92V41.176ZM93.92 43.792V43.892H94.02V43.792H93.92ZM72.08 43.792H71.98V43.892H72.08V43.792ZM74.912 49.36V49.26H74.812V49.36H74.912ZM81.152 49.36H81.252V49.26H81.152V49.36ZM81.152 51.472V51.572H81.252V51.472H81.152ZM74.912 51.472H74.812V51.572H74.912V51.472ZM74.912 53.032V52.932H74.812V53.032H74.912ZM81.152 53.032H81.252V52.932H81.152V53.032ZM81.152 55.168V55.268H81.252V55.168H81.152ZM74.912 55.168H74.812V55.268H74.912V55.168ZM84.968 45.688V45.588H84.868V45.688H84.968ZM87.632 45.688H87.732V45.588H87.632V45.688ZM87.632 55.528V55.628H87.732V55.528H87.632ZM84.968 55.528H84.868V55.628H84.968V55.528ZM80.144 45.448V45.348H80.044V45.448H80.144ZM82.928 45.448H83.028V45.348H82.928V45.448ZM81.872 59.632L81.8273 59.5425L81.8241 59.5442L81.872 59.632ZM78.488 60.088L78.3899 60.1076L78.406 60.188H78.488V60.088ZM77.576 57.64L77.5814 57.5401L77.4039 57.5306L77.4879 57.6872L77.576 57.64ZM79.736 57.664V57.5637L79.7277 57.5643L79.736 57.664ZM89.792 45.04V44.94H89.692V45.04H89.792ZM92.624 45.04H92.724V44.94H92.624V45.04ZM91.4 59.584L91.359 59.4928L91.3572 59.4936L91.4 59.584ZM87.416 60.088L87.3177 60.1064L87.3328 60.1869L87.4146 60.188L87.416 60.088ZM86.408 57.352L86.4139 57.2522L86.2334 57.2416L86.3203 57.4001L86.408 57.352ZM89.288 57.4V57.2998L89.2821 57.3002L89.288 57.4ZM75.392 38.56L75.3589 38.4656L75.2194 38.5146L75.3167 38.6258L75.392 38.56ZM78.128 37.6L78.2015 37.5322L78.1569 37.4839L78.0949 37.5056L78.128 37.6ZM80.36 40.72L80.3935 40.8142L80.4955 40.778L80.4513 40.6792L80.36 40.72ZM77.456 41.752L77.3628 41.7882L77.398 41.8787L77.4895 41.8462L77.456 41.752ZM87.704 37.552L87.7325 37.4562L87.6456 37.4303L87.6114 37.5143L87.704 37.552ZM90.848 38.488L90.9322 38.5419L91.0039 38.4301L90.8765 38.3922L90.848 38.488ZM87.968 42.616L87.9356 42.7106L88.0023 42.7335L88.0463 42.6783L87.968 42.616ZM85.376 41.728L85.295 41.6694L85.2158 41.7788L85.3436 41.8226L85.376 41.728ZM73.4 45.448V45.348H73.3V45.448H73.4ZM80.96 45.448H81.06V45.348H80.96V45.448ZM80.96 47.848V47.948H81.06V47.848H80.96ZM76.112 47.848V47.748H76.012V47.848H76.112ZM76.112 60.016V60.116H76.212V60.016H76.112ZM73.4 60.016H73.3V60.116H73.4V60.016ZM72.08 41.276H93.92V41.076H72.08V41.276ZM93.82 41.176V43.792H94.02V41.176H93.82ZM93.92 43.692H72.08V43.892H93.92V43.692ZM72.18 43.792V41.176H71.98V43.792H72.18ZM74.912 49.46H81.152V49.26H74.912V49.46ZM81.052 49.36V51.472H81.252V49.36H81.052ZM81.152 51.372H74.912V51.572H81.152V51.372ZM75.012 51.472V49.36H74.812V51.472H75.012ZM74.912 53.132H81.152V52.932H74.912V53.132ZM81.052 53.032V55.168H81.252V53.032H81.052ZM81.152 55.068H74.912V55.268H81.152V55.068ZM75.012 55.168V53.032H74.812V55.168H75.012ZM84.968 45.788H87.632V45.588H84.968V45.788ZM87.532 45.688V55.528H87.732V45.688H87.532ZM87.632 55.428H84.968V55.628H87.632V55.428ZM85.068 55.528V45.688H84.868V55.528H85.068ZM80.144 45.548H82.928V45.348H80.144V45.548ZM82.828 45.448V57.328H83.028V45.448H82.828ZM82.828 57.328C82.828 57.9357 82.768 58.3931 82.6143 58.7461C82.4627 59.0942 82.2167 59.3479 81.8273 59.5426L81.9167 59.7214C82.3433 59.5081 82.6253 59.2218 82.7977 58.8259C82.968 58.4349 83.028 57.9443 83.028 57.328H82.828ZM81.8241 59.5442C81.4443 59.7514 80.985 59.8633 80.4304 59.9226C79.8755 59.9819 79.2327 59.988 78.488 59.988V60.188C79.2313 60.188 79.8845 60.1821 80.4516 60.1214C81.019 60.0607 81.5077 59.9446 81.9199 59.7198L81.8241 59.5442ZM78.5861 60.0684C78.4397 59.3368 78.0277 58.2715 77.6641 57.5928L77.4879 57.6872C77.8443 58.3525 78.2483 59.3992 78.3899 60.1076L78.5861 60.0684ZM77.5706 57.7399C78.4597 57.7879 79.4493 57.7882 79.7443 57.7637L79.7277 57.5643C79.4467 57.5878 78.4683 57.5881 77.5814 57.5401L77.5706 57.7399ZM79.736 57.764C79.8959 57.764 80.033 57.7409 80.126 57.6524C80.2204 57.5624 80.244 57.4294 80.244 57.28H80.044C80.044 57.4186 80.0196 57.4776 79.988 57.5076C79.955 57.5391 79.8881 57.564 79.736 57.564V57.764ZM80.244 57.28V45.448H80.044V57.28H80.244ZM89.792 45.14H92.624V44.94H89.792V45.14ZM92.524 45.04V57.016H92.724V45.04H92.524ZM92.524 57.016C92.524 57.7083 92.4579 58.2249 92.2808 58.619C92.1062 59.0076 91.8199 59.2854 91.359 59.4928L91.441 59.6752C91.9401 59.4506 92.2658 59.1404 92.4632 58.701C92.6581 58.2671 92.724 57.7157 92.724 57.016H92.524ZM91.3572 59.4936C90.4688 59.9145 89.195 60.012 87.4174 59.988L87.4146 60.188C89.189 60.212 90.5072 60.1175 91.4428 59.6744L91.3572 59.4936ZM87.5143 60.0696C87.3681 59.2898 86.908 58.0559 86.4957 57.3039L86.3203 57.4001C86.724 58.1361 87.1759 59.3502 87.3177 60.1064L87.5143 60.0696ZM86.4021 57.4518C87.6283 57.524 88.8806 57.5241 89.2939 57.4998L89.2821 57.3002C88.8794 57.3239 87.6357 57.324 86.4139 57.2522L86.4021 57.4518ZM89.288 57.5C89.4808 57.5 89.6406 57.4777 89.7486 57.3863C89.8621 57.2903 89.892 57.1424 89.892 56.968H89.692C89.692 57.1296 89.6619 57.1977 89.6194 57.2337C89.5714 57.2743 89.4792 57.3 89.288 57.3V57.5ZM89.892 56.968V45.04H89.692V56.968H89.892ZM75.4251 38.6544L78.1611 37.6944L78.0949 37.5056L75.3589 38.4656L75.4251 38.6544ZM78.0545 37.6678C78.9159 38.601 79.8673 39.8636 80.2687 40.7608L80.4513 40.6792C80.0367 39.7524 79.0681 38.471 78.2015 37.5322L78.0545 37.6678ZM80.3265 40.6258L77.4225 41.6578L77.4895 41.8462L80.3935 40.8142L80.3265 40.6258ZM77.5492 41.7158C77.2077 40.8375 76.312 39.4596 75.4673 38.4941L75.3167 38.6258C76.152 39.5804 77.0323 40.9385 77.3628 41.7882L77.5492 41.7158ZM87.6755 37.6478L90.8195 38.5838L90.8765 38.3922L87.7325 37.4562L87.6755 37.6478ZM90.7638 38.4341C89.7805 39.9689 88.7266 41.5016 87.8897 42.5537L88.0463 42.6783C88.8894 41.6184 89.9475 40.0791 90.9322 38.5419L90.7638 38.4341ZM88.0004 42.5214L85.4084 41.6334L85.3436 41.8226L87.9356 42.7106L88.0004 42.5214ZM85.457 41.7866C86.2775 40.6525 87.2654 38.8935 87.7966 37.5897L87.6114 37.5143C87.0866 38.8025 86.1065 40.5475 85.295 41.6694L85.457 41.7866ZM73.4 45.548H80.96V45.348H73.4V45.548ZM80.86 45.448V47.848H81.06V45.448H80.86ZM80.96 47.748H76.112V47.948H80.96V47.748ZM76.012 47.848V60.016H76.212V47.848H76.012ZM76.112 59.916H73.4V60.116H76.112V59.916ZM73.5 60.016V45.448H73.3V60.016H73.5ZM96.176 38.632V38.532H96.076V38.632H96.176ZM103.832 38.632H103.932V38.532H103.832V38.632ZM103.832 41.128V41.228H103.932V41.128H103.832ZM96.176 41.128H96.076V41.228H96.176V41.128ZM95.624 46.36V46.26H95.524V46.36H95.624ZM104.744 46.36H104.844V46.26H104.744V46.36ZM104.744 48.904V49.004H104.844V48.904H104.744ZM95.624 48.904H95.524V49.004H95.624V48.904ZM99.2 47.752V47.652H99.1V47.752H99.2ZM101.96 47.752H102.06V47.652H101.96V47.752ZM100.832 59.608L100.789 59.5175L100.785 59.5196L100.832 59.608ZM97.136 60.112L97.0367 60.1237L97.0471 60.212H97.136V60.112ZM96.272 57.352L96.2743 57.252L96.1083 57.2482L96.1826 57.3967L96.272 57.352ZM102.968 38.632V38.532H102.868V38.632H102.968ZM103.568 38.632V38.732H103.581L103.594 38.7285L103.568 38.632ZM104.096 38.488L104.154 38.4066L104.115 38.3791L104.07 38.3915L104.096 38.488ZM105.848 39.736L105.933 39.7887L105.982 39.709L105.906 39.6546L105.848 39.736ZM101.432 45.184L101.352 45.2446L101.418 45.3305L101.499 45.2587L101.432 45.184ZM99.824 43.48L99.7555 43.4071L99.674 43.4837L99.7592 43.5562L99.824 43.48ZM102.968 39.16L103.058 39.2027L103.068 39.1824V39.16H102.968ZM103.904 46.36V46.26H103.804V46.36H103.904ZM104.264 46.36V46.46H104.276L104.288 46.457L104.264 46.36ZM104.648 46.264L104.67 46.1665L104.647 46.1612L104.624 46.167L104.648 46.264ZM106.424 46.672L106.521 46.6963L106.546 46.5974L106.446 46.5745L106.424 46.672ZM104.72 52.384L104.698 52.4816L104.784 52.5008L104.814 52.4184L104.72 52.384ZM102.584 51.904L102.489 51.8724L102.454 51.9773L102.562 52.0016L102.584 51.904ZM103.904 46.696L104.002 46.7148L104.004 46.7055V46.696H103.904ZM96.608 43.84L96.5284 43.7795L96.4551 43.876L96.5637 43.9297L96.608 43.84ZM98.048 41.944L98.09 41.8533L98.017 41.8194L97.9684 41.8835L98.048 41.944ZM103.784 45.472L103.865 45.531L103.917 45.4597L103.853 45.3992L103.784 45.472ZM102.224 47.608L102.152 47.6773L102.234 47.7633L102.305 47.667L102.224 47.608ZM105.728 38.56V38.46H105.628V38.56H105.728ZM118.016 38.56H118.116V38.46H118.016V38.56ZM118.016 40.984V41.084H118.116V40.984H118.016ZM105.728 40.984H105.628V41.084H105.728V40.984ZM109.184 48.184V48.084H109.084V48.184H109.184ZM109.184 49.72H109.084V49.82H109.184V49.72ZM114.536 49.72V49.82H114.636V49.72H114.536ZM114.536 48.184H114.636V48.084H114.536V48.184ZM109.184 51.688V51.588H109.084V51.688H109.184ZM109.184 53.224H109.084V53.324H109.184V53.224ZM114.536 53.224V53.324H114.636V53.224H114.536ZM114.536 51.688H114.636V51.588H114.536V51.688ZM109.184 44.704V44.604H109.084V44.704H109.184ZM109.184 46.216H109.084V46.316H109.184V46.216ZM114.536 46.216V46.316H114.636V46.216H114.536ZM114.536 44.704H114.636V44.604H114.536V44.704ZM106.544 42.592V42.492H106.444V42.592H106.544ZM117.296 42.592H117.396V42.492H117.296V42.592ZM117.296 55.336V55.436H117.396V55.336H117.296ZM106.544 55.336H106.444V55.436H106.544V55.336ZM110.408 39.88L110.419 39.7806L110.315 39.7692L110.308 39.8739L110.408 39.88ZM113.696 40.24L113.792 40.2689L113.826 40.1537L113.707 40.1406L113.696 40.24ZM112.328 44.296L112.31 44.3944L112.391 44.4091L112.421 44.3328L112.328 44.296ZM109.832 43.84L109.734 43.8196L109.713 43.9199L109.814 43.9384L109.832 43.84ZM108.896 55.36L108.951 55.2763L108.883 55.2324L108.826 55.2885L108.896 55.36ZM111.248 56.896L111.317 56.968L111.408 56.8809L111.303 56.8123L111.248 56.896ZM105.776 60.232L105.7 60.2974L105.746 60.3506L105.812 60.3253L105.776 60.232ZM103.856 58.36L103.822 58.2659L103.65 58.3277L103.795 58.4393L103.856 58.36ZM112.376 56.968L112.32 56.8851L112.2 56.9663L112.319 57.0499L112.376 56.968ZM114.512 55.528L114.566 55.4439L114.511 55.4083L114.456 55.4451L114.512 55.528ZM118.616 58.624L118.674 58.7054L118.772 58.6359L118.686 58.5524L118.616 58.624ZM116.36 60.232L116.287 60.3007L116.347 60.364L116.418 60.3134L116.36 60.232ZM96.176 38.732H103.832V38.532H96.176V38.732ZM103.732 38.632V41.128H103.932V38.632H103.732ZM103.832 41.028H96.176V41.228H103.832V41.028ZM96.276 41.128V38.632H96.076V41.128H96.276ZM95.624 46.46H104.744V46.26H95.624V46.46ZM104.644 46.36V48.904H104.844V46.36H104.644ZM104.744 48.804H95.624V49.004H104.744V48.804ZM95.724 48.904V46.36H95.524V48.904H95.724ZM99.2 47.852H101.96V47.652H99.2V47.852ZM101.86 47.752V57.088H102.06V47.752H101.86ZM101.86 57.088C101.86 57.7452 101.806 58.2509 101.645 58.6432C101.487 59.0296 101.224 59.3116 100.789 59.5176L100.875 59.6984C101.352 59.4724 101.653 59.1544 101.831 58.7188C102.006 58.2891 102.06 57.7508 102.06 57.088H101.86ZM100.785 59.5196C99.9474 59.9618 98.7743 60.012 97.136 60.012V60.212C98.7617 60.212 99.9886 60.1662 100.879 59.6964L100.785 59.5196ZM97.2353 60.1003C97.1377 59.2707 96.7496 58.0835 96.3614 57.3073L96.1826 57.3967C96.5624 58.1565 96.9423 59.3213 97.0367 60.1237L97.2353 60.1003ZM96.2697 57.452C97.303 57.476 98.432 57.476 98.768 57.476V57.276C98.432 57.276 97.305 57.276 96.2743 57.252L96.2697 57.452ZM98.768 57.476C98.9344 57.476 99.0768 57.4604 99.1733 57.3814C99.2769 57.2967 99.3 57.1645 99.3 57.016H99.1C99.1 57.1555 99.0751 57.2033 99.0467 57.2266C99.0112 57.2556 98.9376 57.276 98.768 57.276V57.476ZM99.3 57.016V47.752H99.1V57.016H99.3ZM102.968 38.732H103.568V38.532H102.968V38.732ZM103.594 38.7285L104.122 38.5845L104.07 38.3915L103.542 38.5355L103.594 38.7285ZM104.038 38.5694L105.79 39.8174L105.906 39.6546L104.154 38.4066L104.038 38.5694ZM105.763 39.6833C104.59 41.574 102.892 43.7496 101.365 45.1093L101.499 45.2587C103.044 43.8824 104.754 41.69 105.933 39.7887L105.763 39.6833ZM101.512 45.1234C101.123 44.614 100.375 43.8167 99.8888 43.4038L99.7592 43.5562C100.233 43.9593 100.973 44.746 101.352 45.2446L101.512 45.1234ZM99.8925 43.5529C101.102 42.4158 102.453 40.4854 103.058 39.2027L102.878 39.1173C102.283 40.3786 100.946 42.2882 99.7555 43.4071L99.8925 43.5529ZM103.068 39.16V38.632H102.868V39.16H103.068ZM103.904 46.46H104.264V46.26H103.904V46.46ZM104.288 46.457L104.672 46.361L104.624 46.167L104.24 46.263L104.288 46.457ZM104.626 46.3615L106.402 46.7695L106.446 46.5745L104.67 46.1665L104.626 46.3615ZM106.327 46.6477C105.824 48.6615 105.153 50.9139 104.626 52.3496L104.814 52.4184C105.343 50.9741 106.016 48.7145 106.521 46.6963L106.327 46.6477ZM104.742 52.2864L102.606 51.8064L102.562 52.0016L104.698 52.4816L104.742 52.2864ZM102.679 51.9356C103.113 50.6346 103.666 48.4702 104.002 46.7148L103.806 46.6772C103.47 48.4258 102.919 50.5814 102.489 51.8724L102.679 51.9356ZM104.004 46.696V46.36H103.804V46.696H104.004ZM96.6876 43.9005L98.1276 42.0045L97.9684 41.8835L96.5284 43.7795L96.6876 43.9005ZM98.006 42.0347C99.9716 42.9456 102.504 44.4042 103.715 45.5448L103.853 45.3992C102.616 44.2358 100.06 42.7664 98.09 41.8533L98.006 42.0347ZM103.703 45.413L102.143 47.549L102.305 47.667L103.865 45.531L103.703 45.413ZM102.296 47.5387C101.132 46.3264 98.6481 44.7362 96.6523 43.7503L96.5637 43.9297C98.5519 44.9118 101.012 46.4896 102.152 47.6773L102.296 47.5387ZM105.728 38.66H118.016V38.46H105.728V38.66ZM117.916 38.56V40.984H118.116V38.56H117.916ZM118.016 40.884H105.728V41.084H118.016V40.884ZM105.828 40.984V38.56H105.628V40.984H105.828ZM109.084 48.184V49.72H109.284V48.184H109.084ZM109.184 49.82H114.536V49.62H109.184V49.82ZM114.636 49.72V48.184H114.436V49.72H114.636ZM114.536 48.084H109.184V48.284H114.536V48.084ZM109.084 51.688V53.224H109.284V51.688H109.084ZM109.184 53.324H114.536V53.124H109.184V53.324ZM114.636 53.224V51.688H114.436V53.224H114.636ZM114.536 51.588H109.184V51.788H114.536V51.588ZM109.084 44.704V46.216H109.284V44.704H109.084ZM109.184 46.316H114.536V46.116H109.184V46.316ZM114.636 46.216V44.704H114.436V46.216H114.636ZM114.536 44.604H109.184V44.804H114.536V44.604ZM106.544 42.692H117.296V42.492H106.544V42.692ZM117.196 42.592V55.336H117.396V42.592H117.196ZM117.296 55.236H106.544V55.436H117.296V55.236ZM106.644 55.336V42.592H106.444V55.336H106.644ZM110.397 39.9794L113.685 40.3394L113.707 40.1406L110.419 39.7806L110.397 39.9794ZM113.6 40.2111C113.145 41.7219 112.642 43.231 112.235 44.2592L112.421 44.3328C112.83 43.297 113.335 41.7821 113.792 40.2689L113.6 40.2111ZM112.346 44.1976L109.85 43.7416L109.814 43.9384L112.31 44.3944L112.346 44.1976ZM109.93 43.8604C110.17 42.706 110.435 41.0688 110.508 39.8861L110.308 39.8739C110.237 41.0432 109.974 42.67 109.734 43.8196L109.93 43.8604ZM108.841 55.4437L111.193 56.9797L111.303 56.8123L108.951 55.2763L108.841 55.4437ZM111.179 56.824C109.87 58.0846 107.603 59.4222 105.74 60.1387L105.812 60.3253C107.693 59.6018 109.986 58.2514 111.317 56.968L111.179 56.824ZM105.852 60.1666C105.394 59.6362 104.549 58.7666 103.917 58.2807L103.795 58.4393C104.411 58.9134 105.246 59.7718 105.7 60.2974L105.852 60.1666ZM103.89 58.4541C105.773 57.7781 107.898 56.4752 108.966 55.4315L108.826 55.2885C107.782 56.3088 105.683 57.5979 103.822 58.2659L103.89 58.4541ZM112.432 57.0509L114.568 55.6109L114.456 55.4451L112.32 56.8851L112.432 57.0509ZM114.458 55.6121C115.8 56.4751 117.618 57.7908 118.546 58.6956L118.686 58.5524C117.742 57.6332 115.912 56.3089 114.566 55.4439L114.458 55.6121ZM118.558 58.5426L116.302 60.1506L116.418 60.3134L118.674 58.7054L118.558 58.5426ZM116.433 60.1633C115.586 59.2679 113.803 57.8473 112.433 56.8861L112.319 57.0499C113.685 58.0087 115.454 59.4201 116.287 60.3007L116.433 60.1633ZM130.832 48.496L130.787 48.4069L130.684 48.4595L130.75 48.5538L130.832 48.496ZM133.136 47.32L133.216 47.2598L133.165 47.1928L133.091 47.2309L133.136 47.32ZM136.28 52.744L136.326 52.8329L136.403 52.7933L136.375 52.7115L136.28 52.744ZM133.76 54.04L133.664 54.0679L133.698 54.1844L133.806 54.1289L133.76 54.04ZM131.624 41.704V41.604H131.524V41.704H131.624ZM140.24 41.704H140.34V41.604H140.24V41.704ZM140.24 44.416V44.516H140.34V44.416H140.24ZM131.624 44.416H131.524V44.516H131.624V44.416ZM139.016 41.704V41.604H138.916V41.704H139.016ZM141.8 41.704H141.9V41.604H141.8V41.704ZM141.776 43.024L141.676 43.0173L141.676 43.0206L141.776 43.024ZM140.096 58.696L140.018 58.6339L140.015 58.6367L140.096 58.696ZM137.768 60.04L137.781 60.1391L137.784 60.1386L137.768 60.04ZM134 60.088L133.9 60.0939L133.905 60.1833L133.995 60.1879L134 60.088ZM133.04 57.208L133.048 57.1083L132.846 57.0923L132.956 57.2623L133.04 57.208ZM137.6 56.92L137.528 56.85L137.521 56.8582L137.6 56.92ZM139.016 42.28L139.116 42.2829V42.28H139.016ZM131.768 37.6L131.789 37.5023L131.695 37.4817L131.671 37.5756L131.768 37.6ZM134.744 38.248L134.84 38.2751L134.869 38.1729L134.765 38.1503L134.744 38.248ZM130.256 47.536L130.192 47.6128L130.269 47.6768L130.333 47.6001L130.256 47.536ZM127.688 45.784L127.616 45.7147L127.527 45.8075L127.639 45.871L127.688 45.784ZM123.32 37.648L123.353 37.5536L123.257 37.52L123.225 37.6168L123.32 37.648ZM125.864 38.536L125.953 38.5825L126.007 38.4798L125.897 38.4416L125.864 38.536ZM122.816 43.864L122.778 43.9566L122.852 43.9865L122.898 43.9218L122.816 43.864ZM120.872 43.072L120.786 43.0205L120.726 43.1206L120.834 43.1646L120.872 43.072ZM126.2 40.48L126.238 40.3877L126.152 40.3517L126.11 40.4356L126.2 40.48ZM128.624 41.488L128.708 41.5421L128.773 41.4416L128.662 41.3957L128.624 41.488ZM122.648 49.624L122.603 49.7132L122.671 49.7477L122.722 49.6911L122.648 49.624ZM120.896 48.736L120.82 48.671L120.737 48.7677L120.851 48.8252L120.896 48.736ZM119.624 43.336L119.541 43.2801L119.494 43.3505L119.555 43.4088L119.624 43.336ZM120.968 41.344L121.033 41.2679L120.948 41.1953L120.885 41.2881L120.968 41.344ZM124.376 45.04L124.46 45.0944L124.494 45.0425L124.462 44.9891L124.376 45.04ZM122.912 47.296L122.823 47.3422L122.903 47.4943L122.996 47.3504L122.912 47.296ZM125.6 46.264L125.56 46.1723L125.459 46.2161L125.512 46.3122L125.6 46.264ZM127.64 45.376L127.726 45.3247L127.681 45.2492L127.6 45.2843L127.64 45.376ZM129.872 50.464L129.914 50.5548L129.987 50.5209L129.97 50.4421L129.872 50.464ZM127.688 51.472L127.59 51.4926L127.616 51.6154L127.73 51.5628L127.688 51.472ZM119.6 48.208L119.597 48.1081L119.49 48.1115L119.5 48.2176L119.6 48.208ZM128.36 47.824H128.46V47.7186L128.355 47.7241L128.36 47.824ZM128.36 50.104L128.368 50.2037L128.46 50.1964V50.104H128.36ZM119.84 50.704L119.74 50.7136L119.75 50.8097L119.846 50.8038L119.84 50.704ZM126.032 52.288L126.001 52.193L125.9 52.2261L125.939 52.3246L126.032 52.288ZM128.144 51.592L128.236 51.5522L128.199 51.4684L128.113 51.497L128.144 51.592ZM129.704 56.128L129.738 56.222L129.822 56.1918L129.801 56.1051L129.704 56.128ZM127.448 56.944L127.349 56.9611L127.37 57.0786L127.482 57.038L127.448 56.944ZM120.632 51.736L120.649 51.6374L120.543 51.6192L120.532 51.7266L120.632 51.736ZM123.008 52.144L123.107 52.1544L123.117 52.0613L123.025 52.0454L123.008 52.144ZM121.544 58.384L121.491 58.469L121.588 58.5289L121.635 58.4253L121.544 58.384ZM119.36 57.328L119.27 57.2839L119.223 57.3808L119.323 57.4208L119.36 57.328ZM123.416 49.48V49.38H123.316V49.48H123.416ZM125.984 49.48H126.084V49.38H125.984V49.48ZM125.984 60.184V60.284H126.084V60.184H125.984ZM123.416 60.184H123.316V60.284H123.416V60.184ZM130.877 48.5851L133.181 47.4091L133.091 47.2309L130.787 48.4069L130.877 48.5851ZM133.056 47.3802C134.302 49.0332 135.663 51.2553 136.185 52.7765L136.375 52.7115C135.841 51.1607 134.466 48.9188 133.216 47.2598L133.056 47.3802ZM136.234 52.6551L133.714 53.9511L133.806 54.1289L136.326 52.8329L136.234 52.6551ZM133.856 54.0121C133.42 52.5088 132.14 50.1703 130.914 48.4382L130.75 48.5538C131.972 50.2777 133.236 52.5952 133.664 54.0679L133.856 54.0121ZM131.624 41.804H140.24V41.604H131.624V41.804ZM140.14 41.704V44.416H140.34V41.704H140.14ZM140.24 44.316H131.624V44.516H140.24V44.316ZM131.724 44.416V41.704H131.524V44.416H131.724ZM139.016 41.804H141.8V41.604H139.016V41.804ZM141.8 41.704C141.7 41.704 141.7 41.704 141.7 41.704C141.7 41.704 141.7 41.704 141.7 41.704C141.7 41.7041 141.7 41.7041 141.7 41.7042C141.7 41.7043 141.7 41.7044 141.7 41.7047C141.7 41.7051 141.7 41.7058 141.7 41.7067C141.7 41.7085 141.7 41.7112 141.7 41.7148C141.7 41.7219 141.7 41.7323 141.7 41.7458C141.7 41.7727 141.7 41.8115 141.7 41.8592C141.699 41.9547 141.699 42.0857 141.697 42.2279C141.694 42.5135 141.688 42.8406 141.676 43.0173L141.876 43.0307C141.888 42.8474 141.894 42.5145 141.897 42.2301C141.898 42.0873 141.899 41.9558 141.9 41.86C141.9 41.8121 141.9 41.7731 141.9 41.7461C141.9 41.7326 141.9 41.7221 141.9 41.715C141.9 41.7114 141.9 41.7086 141.9 41.7068C141.9 41.7059 141.9 41.7052 141.9 41.7047C141.9 41.7045 141.9 41.7043 141.9 41.7042C141.9 41.7041 141.9 41.7041 141.9 41.704C141.9 41.704 141.9 41.704 141.9 41.704C141.9 41.704 141.9 41.704 141.8 41.704ZM141.676 43.0206C141.496 48.3131 141.328 51.9098 141.08 54.3418C140.955 55.5579 140.811 56.4794 140.636 57.1746C140.461 57.8708 140.257 58.332 140.018 58.6339L140.174 58.7581C140.439 58.424 140.652 57.9312 140.83 57.2234C141.008 56.5146 141.154 55.5821 141.278 54.3622C141.528 51.9222 141.696 48.3189 141.876 43.0274L141.676 43.0206ZM140.015 58.6367C139.686 59.0834 139.367 59.3664 139.01 59.559C138.653 59.7523 138.251 59.8581 137.752 59.9414L137.784 60.1386C138.293 60.0539 138.719 59.9437 139.106 59.735C139.493 59.5256 139.834 59.2206 140.177 58.7553L140.015 58.6367ZM137.755 59.9409C136.876 60.0596 135.42 60.0601 134.005 59.9881L133.995 60.1879C135.412 60.2599 136.884 60.2604 137.781 60.1391L137.755 59.9409ZM134.1 60.0821C134.051 59.2491 133.661 57.9844 133.124 57.1537L132.956 57.2623C133.475 58.0636 133.853 59.2949 133.9 60.0939L134.1 60.0821ZM133.032 57.3077C134.548 57.428 135.944 57.428 136.568 57.428V57.228C135.944 57.228 134.556 57.228 133.048 57.1083L133.032 57.3077ZM136.568 57.428C136.811 57.428 137.017 57.4101 137.199 57.344C137.384 57.2767 137.537 57.1623 137.679 56.9818L137.521 56.8582C137.399 57.0137 137.276 57.1033 137.131 57.156C136.983 57.2099 136.805 57.228 136.568 57.228V57.428ZM137.672 56.9896C137.891 56.7639 138.065 56.3324 138.212 55.6841C138.361 55.0301 138.487 54.1364 138.597 52.9663C138.816 50.6258 138.972 47.1669 139.116 42.2829L138.916 42.2771C138.772 47.1611 138.616 50.6142 138.397 52.9477C138.288 54.1146 138.163 54.9984 138.017 55.6397C137.87 56.2866 137.705 56.6681 137.528 56.8504L137.672 56.9896ZM139.116 42.28V41.704H138.916V42.28H139.116ZM131.747 37.6977L134.723 38.3457L134.765 38.1503L131.789 37.5023L131.747 37.6977ZM134.648 38.2209C133.642 41.7888 131.991 45.3024 130.179 47.4719L130.333 47.6001C132.169 45.4016 133.83 41.8592 134.84 38.2751L134.648 38.2209ZM130.32 47.4592C129.739 46.9748 128.462 46.1075 127.737 45.697L127.639 45.871C128.354 46.2765 129.621 47.1372 130.192 47.6128L130.32 47.4592ZM127.76 45.8533C129.601 43.9402 131.071 40.7778 131.865 37.6244L131.671 37.5756C130.881 40.7102 129.423 43.8358 127.616 45.7147L127.76 45.8533ZM123.287 37.7424L125.831 38.6304L125.897 38.4416L123.353 37.5536L123.287 37.7424ZM125.775 38.4895C124.79 40.3638 123.666 42.4928 122.734 43.8062L122.898 43.9218C123.838 42.5952 124.97 40.4522 125.953 38.5825L125.775 38.4895ZM122.854 43.7714L120.91 42.9794L120.834 43.1646L122.778 43.9566L122.854 43.7714ZM120.958 43.1234C121.826 41.6764 122.861 39.3655 123.415 37.6792L123.225 37.6168C122.675 39.2905 121.646 41.5876 120.786 43.0205L120.958 43.1234ZM126.162 40.5723L128.586 41.5803L128.662 41.3957L126.238 40.3877L126.162 40.5723ZM128.54 41.4339C126.765 44.1927 124.416 47.5231 122.574 49.5569L122.722 49.6911C124.576 47.6449 126.931 44.3033 128.708 41.5421L128.54 41.4339ZM122.693 49.5348L120.941 48.6468L120.851 48.8252L122.603 49.7132L122.693 49.5348ZM120.972 48.801C122.827 46.633 125.015 43.0975 126.29 40.5244L126.11 40.4356C124.841 42.9985 122.661 46.519 120.82 48.671L120.972 48.801ZM119.707 43.3919L121.051 41.3999L120.885 41.2881L119.541 43.2801L119.707 43.3919ZM120.903 41.4201C122.197 42.5223 123.675 44.0496 124.29 45.0909L124.462 44.9891C123.829 43.9184 122.331 42.3737 121.033 41.2679L120.903 41.4201ZM124.292 44.9856L122.828 47.2416L122.996 47.3504L124.46 45.0944L124.292 44.9856ZM123.001 47.2498C122.393 46.0824 120.918 44.417 119.693 43.2632L119.555 43.4088C120.778 44.559 122.231 46.2056 122.823 47.3422L123.001 47.2498ZM125.64 46.3557L127.68 45.4677L127.6 45.2843L125.56 46.1723L125.64 46.3557ZM127.554 45.4273C128.512 47.0312 129.466 49.1088 129.774 50.4859L129.97 50.4421C129.654 49.0352 128.688 46.9368 127.726 45.3247L127.554 45.4273ZM129.83 50.3732L127.646 51.3812L127.73 51.5628L129.914 50.5548L129.83 50.3732ZM127.786 51.4514C127.495 50.0705 126.602 47.8769 125.688 46.2158L125.512 46.3122C126.422 47.9631 127.305 50.1375 127.59 51.4926L127.786 51.4514ZM119.603 48.3079C121.836 48.2359 125.149 48.0919 128.365 47.9239L128.355 47.7241C125.139 47.8921 121.828 48.0361 119.597 48.1081L119.603 48.3079ZM128.26 47.824V50.104H128.46V47.824H128.26ZM128.352 50.0043C125.329 50.2443 122.209 50.4602 119.834 50.6042L119.846 50.8038C122.223 50.6598 125.343 50.4437 128.368 50.2037L128.352 50.0043ZM119.94 50.6944L119.7 48.1984L119.5 48.2176L119.74 50.7136L119.94 50.6944ZM126.063 52.383L128.175 51.687L128.113 51.497L126.001 52.193L126.063 52.383ZM128.052 51.6318C128.675 53.0679 129.32 54.9341 129.607 56.1509L129.801 56.1051C129.512 54.8739 128.861 52.9961 128.236 51.5522L128.052 51.6318ZM129.67 56.034L127.414 56.85L127.482 57.038L129.738 56.222L129.67 56.034ZM127.547 56.9269C127.329 55.6692 126.702 53.7179 126.125 52.2514L125.939 52.3246C126.514 53.7861 127.135 55.7228 127.349 56.9611L127.547 56.9269ZM120.615 51.8346L122.991 52.2426L123.025 52.0454L120.649 51.6374L120.615 51.8346ZM122.909 52.1336C122.669 54.4327 122.143 56.8206 121.453 58.3427L121.635 58.4253C122.337 56.8754 122.867 54.4633 123.107 52.1544L122.909 52.1336ZM121.597 58.299C121.086 57.9826 120 57.4761 119.397 57.2352L119.323 57.4208C119.92 57.6599 120.994 58.1614 121.491 58.469L121.597 58.299ZM119.45 57.3721C120.154 55.9388 120.539 53.7873 120.732 51.7454L120.532 51.7266C120.341 53.7647 119.958 55.8852 119.27 57.2839L119.45 57.3721ZM123.416 49.58H125.984V49.38H123.416V49.58ZM125.884 49.48V60.184H126.084V49.48H125.884ZM125.984 60.084H123.416V60.284H125.984V60.084ZM123.516 60.184V49.48H123.316V60.184H123.516Z" fill="white" mask="url(#path-2-outside-1_432_3312)"/>
<path d="M174 58L95 83H174V58Z" fill="#1B3050" fill-opacity="0.6"/>
</g>
<defs>
<filter id="filter0_d_432_3312" x="0" y="0" width="190" height="99" filterUnits="userSpaceOnUse" color-interpolation-filters="sRGB">
<feFlood flood-opacity="0" result="BackgroundImageFix"/>
<feColorMatrix in="SourceAlpha" type="matrix" values="0 0 0 0 0 0 0 0 0 0 0 0 0 0 0 0 0 0 127 0" result="hardAlpha"/>
<feMorphology radius="1" operator="dilate" in="SourceAlpha" result="effect1_dropShadow_432_3312"/>
<feOffset/>
<feGaussianBlur stdDeviation="7.5"/>
<feComposite in2="hardAlpha" operator="out"/>
<feColorMatrix type="matrix" values="0 0 0 0 0 0 0 0 0 0 0 0 0 0 0 0 0 0 0.35 0"/>
<feBlend mode="normal" in2="BackgroundImageFix" result="effect1_dropShadow_432_3312"/>
<feBlend mode="normal" in="SourceGraphic" in2="effect1_dropShadow_432_3312" result="shape"/>
</filter>
<linearGradient id="paint0_linear_432_3312" x1="95" y1="16" x2="95" y2="83" gradientUnits="userSpaceOnUse">
<stop stop-color="#4171B9"/>
<stop offset="1" stop-color="#2C4E81"/>
</linearGradient>
</defs>
</svg>
