<svg width="41" height="48" viewBox="0 0 41 48" fill="none" xmlns="http://www.w3.org/2000/svg">
<path d="M9.33333 5.33333H17.3333V13.3333H9.33333V5.33333ZM30.6667 5.33333V13.3333H22.6667V5.33333H30.6667ZM22.6667 20H25.3333V17.3333H22.6667V14.6667H25.3333V17.3333H28V14.6667H30.6667V17.3333H28V20H30.6667V24H28V26.6667H25.3333V24H21.3333V26.6667H18.6667V21.3333H22.6667V20ZM25.3333 20V24H28V20H25.3333ZM9.33333 26.6667V18.6667H17.3333V26.6667H9.33333ZM12 8V10.6667H14.6667V8H12ZM25.3333 8V10.6667H28V8H25.3333ZM12 21.3333V24H14.6667V21.3333H12ZM9.33333 14.6667H12V17.3333H9.33333V14.6667ZM16 14.6667H21.3333V20H18.6667V17.3333H16V14.6667ZM18.6667 8H21.3333V13.3333H18.6667V8ZM6.66667 2.66667V8H4V2.66667C4 1.95942 4.28095 1.28115 4.78105 0.781049C5.28115 0.280952 5.95942 0 6.66667 0L12 0V2.66667H6.66667ZM33.3333 0C34.0406 0 34.7189 0.280952 35.219 0.781049C35.719 1.28115 36 1.95942 36 2.66667V8H33.3333V2.66667H28V0H33.3333ZM6.66667 24V29.3333H12V32H6.66667C5.95942 32 5.28115 31.719 4.78105 31.219C4.28095 30.7189 4 30.0406 4 29.3333V24H6.66667ZM33.3333 29.3333V24H36V29.3333C36 30.0406 35.719 30.7189 35.219 31.219C34.7189 31.719 34.0406 32 33.3333 32H28V29.3333H33.3333Z" fill="#CA5050"/>
<path opacity="0.6" d="M3.81765 41.7273H4.78356L5.59322 42.7926L5.80629 43.0767L7.01367 44.6818H6.04776L5.25231 43.6165L5.05344 43.3466L3.81765 41.7273ZM7.31197 40.3636C7.31197 41.1307 7.17347 41.7936 6.89648 42.3523C6.6195 42.911 6.23952 43.3419 5.75657 43.6449C5.27362 43.9479 4.72201 44.0994 4.10174 44.0994C3.48148 44.0994 2.92987 43.9479 2.44691 43.6449C1.96396 43.3419 1.58398 42.911 1.307 42.3523C1.03001 41.7936 0.891513 41.1307 0.891513 40.3636C0.891513 39.5966 1.03001 38.9337 1.307 38.375C1.58398 37.8163 1.96396 37.3854 2.44691 37.0824C2.92987 36.7794 3.48148 36.6278 4.10174 36.6278C4.72201 36.6278 5.27362 36.7794 5.75657 37.0824C6.23952 37.3854 6.6195 37.8163 6.89648 38.375C7.17347 38.9337 7.31197 39.5966 7.31197 40.3636ZM6.45969 40.3636C6.45969 39.7339 6.35434 39.2024 6.14364 38.7692C5.93531 38.3359 5.6524 38.008 5.29492 37.7855C4.93981 37.563 4.54208 37.4517 4.10174 37.4517C3.6614 37.4517 3.26249 37.563 2.90501 37.7855C2.54989 38.008 2.26699 38.3359 2.05629 38.7692C1.84795 39.2024 1.74379 39.7339 1.74379 40.3636C1.74379 40.9934 1.84795 41.5249 2.05629 41.9581C2.26699 42.3913 2.54989 42.7192 2.90501 42.9418C3.26249 43.1643 3.6614 43.2756 4.10174 43.2756C4.54208 43.2756 4.93981 43.1643 5.29492 42.9418C5.6524 42.7192 5.93531 42.3913 6.14364 41.9581C6.35434 41.5249 6.45969 40.9934 6.45969 40.3636ZM8.79279 44V36.7273H11.2502C11.8184 36.7273 12.2847 36.8243 12.6493 37.0185C13.0139 37.2102 13.2838 37.4742 13.459 37.8104C13.6342 38.1465 13.7218 38.5289 13.7218 38.9574C13.7218 39.3859 13.6342 39.7659 13.459 40.0973C13.2838 40.4287 13.0151 40.6892 12.6529 40.8786C12.2907 41.0656 11.8278 41.1591 11.2644 41.1591H9.27575V40.3636H11.236C11.6242 40.3636 11.9367 40.3068 12.1735 40.1932C12.4126 40.0795 12.5854 39.9186 12.6919 39.7102C12.8008 39.4995 12.8553 39.2486 12.8553 38.9574C12.8553 38.6662 12.8008 38.4117 12.6919 38.1939C12.583 37.9761 12.409 37.808 12.1699 37.6896C11.9308 37.5689 11.6148 37.5085 11.2218 37.5085H9.67347V44H8.79279ZM12.2161 40.733L14.0059 44H12.9831L11.2218 40.733H12.2161ZM20.104 44.1136C19.5927 44.1136 19.1523 43.9929 18.783 43.7514C18.4137 43.5099 18.1296 43.1773 17.9308 42.7536C17.7319 42.3298 17.6325 41.8456 17.6325 41.3011C17.6325 40.7472 17.7343 40.2583 17.9379 39.8345C18.1438 39.4084 18.4303 39.0758 18.7972 38.8366C19.1665 38.5952 19.5974 38.4744 20.0898 38.4744C20.4734 38.4744 20.819 38.5455 21.1268 38.6875C21.4345 38.8295 21.6867 39.0284 21.8832 39.2841C22.0797 39.5398 22.2016 39.8381 22.2489 40.179H21.4109C21.3469 39.9304 21.2049 39.7102 20.9847 39.5185C20.7669 39.3243 20.4734 39.2273 20.104 39.2273C19.7773 39.2273 19.4909 39.3125 19.2447 39.483C19.0008 39.651 18.8103 39.889 18.6729 40.1967C18.538 40.5021 18.4705 40.8608 18.4705 41.2727C18.4705 41.6941 18.5368 42.0611 18.6694 42.3736C18.8043 42.6861 18.9937 42.9287 19.2376 43.1016C19.4838 43.2744 19.7726 43.3608 20.104 43.3608C20.3219 43.3608 20.5195 43.3229 20.6971 43.2472C20.8746 43.1714 21.025 43.0625 21.1481 42.9205C21.2712 42.7784 21.3588 42.608 21.4109 42.4091H22.2489C22.2016 42.7311 22.0844 43.0211 21.8974 43.2791C21.7127 43.5348 21.4677 43.7384 21.1623 43.8899C20.8593 44.0391 20.5065 44.1136 20.104 44.1136ZM25.69 44.1136C25.1976 44.1136 24.7655 43.9964 24.3938 43.7621C24.0245 43.5277 23.7357 43.1998 23.5273 42.7784C23.3214 42.357 23.2184 41.8646 23.2184 41.3011C23.2184 40.733 23.3214 40.237 23.5273 39.8132C23.7357 39.3894 24.0245 39.0604 24.3938 38.826C24.7655 38.5916 25.1976 38.4744 25.69 38.4744C26.1824 38.4744 26.6133 38.5916 26.9826 38.826C27.3543 39.0604 27.6431 39.3894 27.8491 39.8132C28.0574 40.237 28.1616 40.733 28.1616 41.3011C28.1616 41.8646 28.0574 42.357 27.8491 42.7784C27.6431 43.1998 27.3543 43.5277 26.9826 43.7621C26.6133 43.9964 26.1824 44.1136 25.69 44.1136ZM25.69 43.3608C26.064 43.3608 26.3718 43.2649 26.6133 43.0732C26.8548 42.8814 27.0335 42.6293 27.1495 42.3168C27.2655 42.0043 27.3235 41.6657 27.3235 41.3011C27.3235 40.9366 27.2655 40.5968 27.1495 40.282C27.0335 39.9671 26.8548 39.7126 26.6133 39.5185C26.3718 39.3243 26.064 39.2273 25.69 39.2273C25.3159 39.2273 25.0082 39.3243 24.7667 39.5185C24.5252 39.7126 24.3465 39.9671 24.2305 40.282C24.1145 40.5968 24.0565 40.9366 24.0565 41.3011C24.0565 41.6657 24.1145 42.0043 24.2305 42.3168C24.3465 42.6293 24.5252 42.8814 24.7667 43.0732C25.0082 43.2649 25.3159 43.3608 25.69 43.3608ZM31.5005 44.1136C31.046 44.1136 30.6447 43.9988 30.2967 43.7692C29.9487 43.5372 29.6764 43.2105 29.4799 42.7891C29.2834 42.3653 29.1852 41.8646 29.1852 41.2869C29.1852 40.714 29.2834 40.2169 29.4799 39.7955C29.6764 39.3741 29.9499 39.0485 30.3002 38.8189C30.6506 38.5893 31.0555 38.4744 31.5147 38.4744C31.8699 38.4744 32.1504 38.5336 32.3564 38.652C32.5647 38.768 32.7233 38.9006 32.8322 39.0497C32.9435 39.1965 33.0299 39.3172 33.0914 39.4119H33.1625V36.7273H34.0005V44H33.1909V43.1619H33.0914C33.0299 43.2614 32.9423 43.3868 32.8287 43.5384C32.715 43.6875 32.5529 43.8213 32.3422 43.9396C32.1315 44.0556 31.8509 44.1136 31.5005 44.1136ZM31.6142 43.3608C31.9503 43.3608 32.2344 43.2732 32.4664 43.098C32.6984 42.9205 32.8748 42.6754 32.9956 42.3629C33.1163 42.0481 33.1767 41.6847 33.1767 41.2727C33.1767 40.8655 33.1175 40.5092 32.9991 40.2038C32.8807 39.8961 32.7056 39.657 32.4735 39.4865C32.2415 39.3137 31.9551 39.2273 31.6142 39.2273C31.2591 39.2273 30.9631 39.3184 30.7264 39.5007C30.492 39.6806 30.3156 39.9257 30.1973 40.2358C30.0813 40.5436 30.0233 40.8892 30.0233 41.2727C30.0233 41.661 30.0824 42.0137 30.2008 42.331C30.3216 42.6458 30.4991 42.8968 30.7335 43.0838C30.9702 43.2685 31.2638 43.3608 31.6142 43.3608ZM37.9387 44.1136C37.4132 44.1136 36.9598 43.9976 36.5787 43.7656C36.1999 43.5312 35.9075 43.2045 35.7015 42.7855C35.4979 42.3641 35.3961 41.8741 35.3961 41.3153C35.3961 40.7566 35.4979 40.2642 35.7015 39.8381C35.9075 39.4096 36.194 39.0758 36.5609 38.8366C36.9302 38.5952 37.3611 38.4744 37.8535 38.4744C38.1376 38.4744 38.4181 38.5218 38.6951 38.6165C38.9721 38.7112 39.2243 38.8651 39.4515 39.0781C39.6788 39.2888 39.8599 39.5682 39.9949 39.9162C40.1298 40.2642 40.1973 40.6927 40.1973 41.2017V41.5568H35.9927V40.8324H39.345C39.345 40.5246 39.2834 40.25 39.1603 40.0085C39.0396 39.767 38.8668 39.5765 38.6419 39.4368C38.4193 39.2971 38.1565 39.2273 37.8535 39.2273C37.5197 39.2273 37.2309 39.3101 36.987 39.4759C36.7456 39.6392 36.5597 39.8523 36.4295 40.1151C36.2993 40.3778 36.2342 40.6596 36.2342 40.9602V41.4432C36.2342 41.8551 36.3052 42.2043 36.4473 42.4908C36.5917 42.7749 36.7917 42.9915 37.0474 43.1406C37.3031 43.2874 37.6002 43.3608 37.9387 43.3608C38.1589 43.3608 38.3578 43.33 38.5353 43.2685C38.7153 43.2045 38.8703 43.1098 39.0005 42.9844C39.1307 42.8565 39.2314 42.6979 39.3024 42.5085L40.112 42.7358C40.0268 43.0104 39.8836 43.2519 39.6824 43.4602C39.4811 43.6662 39.2325 43.8272 38.9366 43.9432C38.6407 44.0568 38.3081 44.1136 37.9387 44.1136Z" fill="black"/>
</svg>
