<svg width="54" height="55" viewBox="0 0 54 55" fill="none" xmlns="http://www.w3.org/2000/svg">
<path d="M21.2 46.428V46.996H25.216V46.428H21.2ZM21.2 45.468V46.02H25.216V45.468H21.2ZM20.616 45.036H25.808V47.42H20.616V45.036ZM19.664 47.868H26.712V48.364H19.664V47.868ZM23.216 48.868H26.064V49.356H23.216V48.868ZM20.704 48.916H22.68V49.364H20.704V48.916ZM20.704 49.924H22.68V50.372H20.704V49.924ZM24.056 49.316C24.52 50.46 25.544 51.332 26.904 51.668C26.776 51.78 26.616 51.996 26.536 52.14C25.128 51.724 24.096 50.772 23.568 49.46L24.056 49.316ZM25.88 48.868H25.992L26.096 48.844L26.464 48.996C25.936 50.62 24.648 51.62 23.256 52.1C23.192 51.956 23.04 51.74 22.928 51.628C24.208 51.244 25.44 50.308 25.88 48.964V48.868ZM19.592 51.148C20.376 51.084 21.536 50.956 22.664 50.828V51.324C21.584 51.452 20.472 51.588 19.648 51.684L19.592 51.148ZM22.36 48.028H22.936V52.14H22.36V48.028ZM20.352 48.036H20.912V51.292H20.352V48.036ZM31.496 47.484H34.472V48.044H31.496V47.484ZM27.288 45.62H30.816V46.132H27.288V45.62ZM27.2 48.796H30.856V49.316H27.2V48.796ZM27.176 47.452H30.912V47.964H27.176V47.452ZM32.984 47.708H33.568V52.1H32.984V47.708ZM28.768 44.812H29.352V45.884H28.768V44.812ZM28.768 47.868H29.352V52.132H28.768V47.868ZM31.208 45.436L31.944 45.66C31.936 45.724 31.888 45.756 31.776 45.772V48.244C31.776 49.444 31.632 51.068 30.504 52.18C30.432 52.044 30.216 51.844 30.072 51.764C31.096 50.756 31.208 49.372 31.208 48.236V45.436ZM33.888 44.876L34.368 45.316C33.616 45.652 32.496 45.924 31.536 46.092C31.504 45.964 31.424 45.756 31.352 45.636C32.248 45.444 33.304 45.164 33.888 44.876ZM29.296 49.468C29.552 49.644 30.424 50.356 30.624 50.54L30.272 50.988C30.016 50.692 29.264 49.988 28.968 49.74L29.296 49.468ZM27.768 46.276L28.24 46.172C28.408 46.524 28.544 46.996 28.584 47.3L28.08 47.436C28.056 47.124 27.928 46.644 27.768 46.276ZM29.816 46.156L30.36 46.276C30.208 46.676 30.04 47.124 29.896 47.42L29.416 47.308C29.56 46.988 29.728 46.492 29.816 46.156ZM28.776 49.06L29.208 49.228C28.8 50.116 28.064 51.06 27.424 51.556C27.328 51.42 27.152 51.228 27.016 51.132C27.664 50.708 28.392 49.844 28.776 49.06Z" fill="#929292"/>
<ellipse cx="22" cy="24" rx="2" ry="2" fill="white"/>
<path fill-rule="evenodd" clip-rule="evenodd" d="M35.5017 12.1147C40.074 14.5126 43 19.246 43 24.4967C43 29.7529 40.068 34.4904 35.4883 36.8858C34.9991 37.1417 34.3947 36.9531 34.1384 36.4647C33.8822 35.9763 34.071 35.3729 34.5602 35.117C38.4872 33.063 41 29.0028 41 24.4967C41 19.9953 38.4924 15.9387 34.5717 13.8825C34.0828 13.6261 33.8946 13.0225 34.1514 12.5343C34.4082 12.0462 35.0128 11.8583 35.5017 12.1147ZM30.6168 13.2676C30.8658 13.609 31 14.0206 31 14.4429V34.5546C31 35.6574 30.1046 36.5515 29 36.5515C28.5775 36.5515 28.1659 36.4179 27.8241 36.1699L20.5192 30.8688C20.1774 30.6208 19.7658 30.4872 19.3433 30.4872H14C12.3431 30.4872 11 29.1462 11 27.492V21.5015C11 19.8473 12.3431 18.5062 14 18.5062H19.3619C19.785 18.5062 20.1972 18.3723 20.5392 18.1237L27.8228 12.8287C28.7157 12.1796 29.9666 12.376 30.6168 13.2676ZM34.9766 17.7782C36.8858 19.4723 38 21.8959 38 24.4967C38 27.1293 36.8583 29.5794 34.9087 31.2749C34.4923 31.637 33.8606 31.5936 33.4979 31.1778C33.1351 30.762 33.1787 30.1313 33.5951 29.7691C35.1131 28.449 36 26.5457 36 24.4967C36 22.4724 35.1345 20.5898 33.648 19.2708C33.2352 18.9045 33.1979 18.2734 33.5648 17.8613C33.9317 17.4491 34.5638 17.4119 34.9766 17.7782Z" fill="#929292"/>
</svg>
