<svg width="55" height="30" viewBox="0 0 55 30" fill="none" xmlns="http://www.w3.org/2000/svg">
<mask id="path-1-inside-1_145_2412" fill="white">
<path d="M0 0H55V30H0V0Z"/>
</mask>
<path d="M55 29H0V31H55V29Z" fill="black" mask="url(#path-1-inside-1_145_2412)"/>
<path d="M12.976 7.456H19.872V8.56H12.976V7.456ZM21.008 12.016H27.44V13.168H21.008V12.016ZM24.48 12.768H25.664V21.296H24.48V12.768ZM20.544 8.144L22.048 8.544C22.032 8.656 21.952 8.72 21.728 8.752V12.416C21.728 15.008 21.392 18.672 18.992 21.248C18.816 20.992 18.384 20.592 18.096 20.448C20.32 18.08 20.544 14.864 20.544 12.416V8.144ZM13.568 10.224H14.704V14.544C14.704 16.592 14.512 19.424 13.28 21.312C13.088 21.088 12.592 20.72 12.336 20.576C13.456 18.848 13.568 16.384 13.568 14.544V10.224ZM26.064 6.752L27.12 7.664C25.536 8.432 23.216 9.088 21.216 9.552C21.152 9.28 20.96 8.848 20.8 8.576C22.704 8.128 24.864 7.44 26.064 6.752ZM14.224 10.224H19.472V15.216H14.224V14.128H18.304V11.328H14.224V10.224ZM29.008 8.64H43.024V9.776H29.008V8.64ZM32.912 14.352H40.432V15.392H32.912V14.352ZM32.064 11.632H40.24V12.704H33.248V21.28H32.064V11.632ZM39.968 11.632H41.136V19.792C41.136 20.496 40.992 20.864 40.448 21.056C39.936 21.248 39.04 21.248 37.664 21.248C37.616 20.912 37.44 20.416 37.264 20.08C38.336 20.128 39.312 20.112 39.6 20.112C39.872 20.096 39.968 20.016 39.968 19.776V11.632ZM34.24 6.56L35.456 6.848C34.368 10.368 32.448 13.92 29.392 16.064C29.232 15.792 28.864 15.376 28.624 15.136C31.488 13.168 33.376 9.776 34.24 6.56ZM32.912 17.056H40.432V18.096H32.912V17.056Z" fill="black"/>
</svg>
