<svg width="84" height="84" viewBox="0 0 84 84" fill="none" xmlns="http://www.w3.org/2000/svg">
<g filter="url(#filter0_d_220_3175)">
<rect x="4" y="2" width="76" height="76" rx="38" fill="white"/>
<path d="M45.25 42.0287H38.75C37.9863 42.0043 37.2375 41.8097 36.5575 41.4589C35.8775 41.1081 35.2832 40.6098 34.8175 40C34.0684 39.0777 33.6656 37.9193 33.68 36.7279C33.7211 35.3903 34.2695 34.1194 35.2124 33.1762C36.1553 32.2329 37.4212 31.689 38.75 31.6562H39.9525V27.5661H44.015V31.6562H45.055C46.3976 31.6643 47.6844 32.1982 48.6429 33.1448C49.6014 34.0915 50.1562 35.3766 50.19 36.7279H46.1275C46.0962 36.4617 45.9705 36.2157 45.7734 36.0353C45.5764 35.855 45.3212 35.7523 45.055 35.7463H38.75C38.501 35.7744 38.2689 35.8869 38.0918 36.0652C37.9146 36.2436 37.8029 36.4773 37.775 36.7279C37.7642 36.7275 37.7533 36.7275 37.7425 36.7279C37.7245 36.8767 37.7365 37.0276 37.7779 37.1716C37.8192 37.3155 37.8891 37.4496 37.9832 37.5657C38.0772 37.6818 38.1937 37.7776 38.3254 37.8473C38.4572 37.917 38.6016 37.9592 38.75 37.9713H45.25C46.0192 37.9909 46.7744 38.1832 47.4604 38.5342C48.1463 38.8852 48.7458 39.386 49.215 40C49.9626 40.9212 50.3549 42.083 50.32 43.2721C50.2865 44.6091 49.7395 45.8811 48.7941 46.8207C47.8487 47.7604 46.5784 48.2946 45.25 48.3111H44.015V52.4339H39.985V48.3111H38.9775C37.6378 48.3115 36.351 47.7848 35.3917 46.8434C34.4323 45.902 33.8764 44.6204 33.8425 43.2721H37.9375C37.9694 43.5352 38.0963 43.7773 38.2941 43.9523C38.4919 44.1273 38.7467 44.2229 39.01 44.221H45.25C45.5133 44.2229 45.7681 44.1273 45.9659 43.9523C46.1636 43.7773 46.2906 43.5352 46.3225 43.2721C46.3406 43.1181 46.3266 42.962 46.2813 42.8138C46.2361 42.6656 46.1605 42.5285 46.0595 42.4115C45.9585 42.2944 45.8343 42.1998 45.6949 42.1339C45.5555 42.068 45.404 42.0322 45.25 42.0287Z" fill="#CD5151"/>
<path fill-rule="evenodd" clip-rule="evenodd" d="M20.0625 22.0036H63.9375C64.9667 21.9591 65.9716 22.3265 66.7327 23.0253C67.4939 23.7242 67.9494 24.6979 68 25.7338V54.2662C67.9494 55.3021 67.4939 56.2758 66.7327 56.9747C65.9716 57.6735 64.9667 58.0408 63.9375 57.9964H20.0625C19.0333 58.0408 18.0284 57.6735 17.2673 56.9747C16.5061 56.2758 16.0506 55.3021 16 54.2662V25.7338C16.0506 24.6979 16.5061 23.7242 17.2673 23.0253C18.0284 22.3265 19.0333 21.9591 20.0625 22.0036ZM20.0625 53.9063H63.9375V26.0937H20.0625V53.9063Z" fill="#CD5151"/>
</g>
<defs>
<filter id="filter0_d_220_3175" x="0" y="0" width="84" height="84" filterUnits="userSpaceOnUse" color-interpolation-filters="sRGB">
<feFlood flood-opacity="0" result="BackgroundImageFix"/>
<feColorMatrix in="SourceAlpha" type="matrix" values="0 0 0 0 0 0 0 0 0 0 0 0 0 0 0 0 0 0 127 0" result="hardAlpha"/>
<feOffset dy="2"/>
<feGaussianBlur stdDeviation="2"/>
<feComposite in2="hardAlpha" operator="out"/>
<feColorMatrix type="matrix" values="0 0 0 0 0 0 0 0 0 0 0 0 0 0 0 0 0 0 0.1 0"/>
<feBlend mode="normal" in2="BackgroundImageFix" result="effect1_dropShadow_220_3175"/>
<feBlend mode="normal" in="SourceGraphic" in2="effect1_dropShadow_220_3175" result="shape"/>
</filter>
</defs>
</svg>
