<svg width="84" height="84" viewBox="0 0 84 84" fill="none" xmlns="http://www.w3.org/2000/svg">
<g filter="url(#filter0_d_220_3170)">
<rect x="4" y="2" width="76" height="76" rx="38" fill="white"/>
<path d="M31.3147 29.4851C28.9954 30.3762 27.2113 33.4059 27.2113 35.0099V40.7129C27.2113 40.7129 28.817 35.0099 31.1363 34.1188C33.4556 33.2277 37.0237 33.2277 41.6623 33.2277C47.0145 33.2277 52.1883 34.1188 52.1883 34.1188L48.085 38.2178L49.869 41.604L59.6814 31.802L50.0474 22L48.2634 25.3861L52.3667 29.4851C52.3667 29.4851 47.1929 28.5941 42.0191 28.5941C37.2021 28.5941 33.634 28.5941 31.3147 29.4851Z" fill="#CD5151"/>
<path d="M52.3667 50.5148C54.686 49.6238 56.4701 46.5941 56.4701 44.9901V39.2871C56.4701 39.2871 54.8644 44.9901 52.5451 45.8812C50.2258 46.7723 46.6577 46.7723 42.0191 46.7723C36.6669 46.7723 31.4931 45.8812 31.4931 45.8812L35.5965 41.7822L33.8124 38.396L24 48.198L33.634 58L35.4181 54.6139L31.3147 50.5148C31.3147 50.5148 36.4885 51.4059 41.6623 51.4059C46.4793 51.4059 50.0474 51.4059 52.3667 50.5148Z" fill="#CD5151"/>
</g>
<defs>
<filter id="filter0_d_220_3170" x="0" y="0" width="84" height="84" filterUnits="userSpaceOnUse" color-interpolation-filters="sRGB">
<feFlood flood-opacity="0" result="BackgroundImageFix"/>
<feColorMatrix in="SourceAlpha" type="matrix" values="0 0 0 0 0 0 0 0 0 0 0 0 0 0 0 0 0 0 127 0" result="hardAlpha"/>
<feOffset dy="2"/>
<feGaussianBlur stdDeviation="2"/>
<feComposite in2="hardAlpha" operator="out"/>
<feColorMatrix type="matrix" values="0 0 0 0 0 0 0 0 0 0 0 0 0 0 0 0 0 0 0.1 0"/>
<feBlend mode="normal" in2="BackgroundImageFix" result="effect1_dropShadow_220_3170"/>
<feBlend mode="normal" in="SourceGraphic" in2="effect1_dropShadow_220_3170" result="shape"/>
</filter>
</defs>
</svg>
