<svg width="68" height="60" viewBox="0 0 68 60" fill="none" xmlns="http://www.w3.org/2000/svg">
<rect x="25.1579" y="21.1582" width="6.63158" height="6.63158" rx="1" fill="white"/>
<rect x="34.7368" y="21.1582" width="8.10526" height="7.36842" rx="1" fill="white"/>
<rect x="25.1579" y="31.4736" width="8.10526" height="7.36842" rx="1" fill="white"/>
<path fill-rule="evenodd" clip-rule="evenodd" d="M35.4737 30C35.0667 30 34.7368 30.3299 34.7368 30.7368V38.1053C34.7368 38.5122 35.0667 38.8421 35.4737 38.8421H42.1053C42.5122 38.8421 42.8421 38.5122 42.8421 38.1053V30.7368C42.8421 30.3299 42.5122 30 42.1053 30H35.4737ZM37.6842 32.2105C37.2773 32.2105 36.9474 32.5404 36.9474 32.9474V35.8947C36.9474 36.3017 37.2773 36.6316 37.6842 36.6316H39.8947C40.3017 36.6316 40.6316 36.3017 40.6316 35.8947V32.9474C40.6316 32.5404 40.3017 32.2105 39.8947 32.2105H37.6842Z" fill="white"/>
<path d="M20 16.7368C20 16.3299 20.3299 16 20.7368 16L26.6316 16C27.0385 16 27.3684 16.3299 27.3684 16.7368V17.4737C27.3684 17.8806 27.0385 18.2105 26.6316 18.2105H22.9474C22.5404 18.2105 22.2105 18.5404 22.2105 18.9474V22.6316C22.2105 23.0385 21.8806 23.3684 21.4737 23.3684H20.7368C20.3299 23.3684 20 23.0385 20 22.6316V16.7368Z" fill="white"/>
<path d="M48 16.7368C48 16.3299 47.6701 16 47.2632 16L41.3684 16C40.9615 16 40.6316 16.3299 40.6316 16.7368V17.4737C40.6316 17.8806 40.9615 18.2105 41.3684 18.2105H45.0526C45.4596 18.2105 45.7895 18.5404 45.7895 18.9474V22.6316C45.7895 23.0385 46.1194 23.3684 46.5263 23.3684H47.2632C47.6701 23.3684 48 23.0385 48 22.6316V16.7368Z" fill="white"/>
<path d="M47.2632 44C47.6701 44 48 43.6701 48 43.2632V37.3684C48 36.9615 47.6701 36.6316 47.2632 36.6316H46.5263C46.1194 36.6316 45.7895 36.9615 45.7895 37.3684V41.0526C45.7895 41.4596 45.4596 41.7895 45.0526 41.7895H41.3684C40.9615 41.7895 40.6316 42.1194 40.6316 42.5263V43.2632C40.6316 43.6701 40.9615 44 41.3684 44H47.2632Z" fill="white"/>
<path d="M20 43.2632C20 43.6701 20.3299 44 20.7368 44H26.6316C27.0385 44 27.3684 43.6701 27.3684 43.2632V42.5263C27.3684 42.1194 27.0385 41.7895 26.6316 41.7895H22.9474C22.5404 41.7895 22.2105 41.4596 22.2105 41.0526V37.3684C22.2105 36.9615 21.8806 36.6316 21.4737 36.6316H20.7368C20.3299 36.6316 20 36.9615 20 37.3684V43.2632Z" fill="white"/>
</svg>
