<svg width="80" height="80" viewBox="0 0 80 80" fill="none" xmlns="http://www.w3.org/2000/svg">
<rect x="12" y="12" width="56" height="56" rx="15" fill="white"/>
<path d="M33.5473 28.8191C35.4447 27.7215 37.6474 27.093 40 27.093C47.1283 27.093 52.907 32.8717 52.907 40C52.907 47.1283 47.1283 52.907 40 52.907C32.8717 52.907 27.093 47.1283 27.093 40C27.093 37.6474 27.7215 35.4447 28.8191 33.5473C29.1085 33.047 28.9375 32.4068 28.4373 32.1174C27.937 31.828 27.2968 31.9989 27.0074 32.4992C25.7305 34.7066 25 37.2696 25 40C25 48.2842 31.7157 55 40 55C48.2842 55 55 48.2842 55 40C55 31.7157 48.2842 25 40 25C37.2696 25 34.7066 25.7305 32.4992 27.0074C31.9989 27.2968 31.828 27.937 32.1174 28.4373C32.4068 28.9375 33.047 29.1085 33.5473 28.8191Z" fill="black" fill-opacity="0.6"/>
<path d="M40 34.0698C39.1331 34.0698 38.4302 34.7726 38.4302 35.6395C38.4302 36.2175 37.9617 36.6861 37.3837 36.6861C36.8057 36.6861 36.3372 36.2175 36.3372 35.6395C36.3372 33.6166 37.9772 31.9768 40 31.9768C42.0228 31.9768 43.6628 33.6166 43.6628 35.6395C43.6628 36.9838 42.938 38.1576 41.8633 38.7935L41.8631 38.7936C41.5886 38.956 41.362 39.1334 41.2143 39.3073C41.071 39.4762 41.0465 39.5864 41.0465 39.6512V41.3954C41.0465 41.9733 40.578 42.4419 40 42.4419C39.422 42.4419 38.9535 41.9733 38.9535 41.3954V39.6512C38.9535 38.9453 39.2625 38.3725 39.6185 37.953C39.9701 37.5387 40.4086 37.2222 40.7974 36.9923L40.7975 36.9922C41.262 36.7172 41.5698 36.2137 41.5698 35.6395C41.5698 34.7726 40.8669 34.0698 40 34.0698Z" fill="black" fill-opacity="0.6"/>
<path d="M40 46.9768C40.7706 46.9768 41.3953 46.352 41.3953 45.5814C41.3953 44.8108 40.7706 44.1861 40 44.1861C39.2294 44.1861 38.6046 44.8108 38.6046 45.5814C38.6046 46.352 39.2294 46.9768 40 46.9768Z" fill="black" fill-opacity="0.6"/>
</svg>
