<svg width="55" height="30" viewBox="0 0 55 30" fill="none" xmlns="http://www.w3.org/2000/svg">
<rect width="55" height="30" fill="black" fill-opacity="0.3"/>
<path d="M19.936 7.728C18.624 9.68 16.048 12.064 13.344 13.648C13.184 13.36 12.848 12.944 12.592 12.688C15.344 11.168 18.016 8.624 19.248 6.544H20.48C22.144 8.912 24.944 11.248 27.456 12.496C27.152 12.8 26.864 13.2 26.656 13.552C24.176 12.128 21.376 9.744 19.936 7.728ZM14.528 16.048H25.44V17.12H14.528V16.048ZM15.248 12.464H24.816V13.552H15.248V12.464ZM13.216 19.76H26.848V20.848H13.216V19.76ZM19.312 12.912H20.576V20.368H19.312V12.912ZM37.6 7.52H42.4V8.656H38.768V21.296H37.6V7.52ZM29.072 8.336H36.72V9.408H29.072V8.336ZM28.656 12.768H36.928V13.872H28.656V12.768ZM32.288 6.624H33.456V8.992H32.288V6.624ZM30.064 9.968L31.072 9.744C31.424 10.544 31.728 11.616 31.824 12.32L30.752 12.576C30.672 11.872 30.4 10.784 30.064 9.968ZM34.656 9.632L35.808 9.904C35.456 10.848 35.072 11.92 34.72 12.624L33.76 12.368C34.08 11.632 34.464 10.448 34.656 9.632ZM30.16 19.296H35.424V20.368H30.16V19.296ZM29.728 15.264H36.032V21.216H34.88V16.336H30.848V21.296H29.728V15.264ZM42.08 7.52H42.32L42.512 7.472L43.392 8.032C42.736 9.536 41.904 11.392 41.168 12.864C42.784 14.352 43.168 15.616 43.184 16.768C43.184 17.744 42.96 18.496 42.4 18.88C42.112 19.056 41.76 19.168 41.344 19.232C40.944 19.28 40.416 19.264 39.952 19.248C39.936 18.912 39.824 18.4 39.616 18.064C40.08 18.096 40.544 18.112 40.864 18.096C41.136 18.08 41.36 18.016 41.552 17.904C41.904 17.696 42.016 17.232 42.016 16.64C42 15.632 41.536 14.432 39.92 13.024C40.736 11.376 41.6 9.168 42.08 7.904V7.52Z" fill="white"/>
</svg>
