<svg width="55" height="30" viewBox="0 0 55 30" fill="none" xmlns="http://www.w3.org/2000/svg">
<rect width="55" height="30" fill="#CD3838" fill-opacity="0.8"/>
<path d="M16.24 6.56H17.264V9.2H16.24V6.56ZM16.656 7.264H20V8.064H16.656V7.264ZM15.376 8.848H19.04V9.648H14.72L15.376 8.848ZM18.752 8.848H18.96L19.152 8.816L19.792 9.168C18.592 11.568 15.84 12.992 13.184 13.68C13.056 13.424 12.816 13.072 12.624 12.864C15.088 12.32 17.76 10.992 18.752 9.024V8.848ZM14.048 10.416L14.672 9.872C15.488 10.224 16.512 10.784 17.04 11.232L16.4 11.824C15.904 11.408 14.88 10.8 14.048 10.416ZM15.024 8.608L15.936 8.88C15.264 9.776 14.16 10.64 13.152 11.184C12.992 11.024 12.624 10.704 12.4 10.56C13.424 10.08 14.448 9.376 15.024 8.608ZM20.656 7.264H25.632V8.144H20.656V7.264ZM25.344 7.264H25.568L25.744 7.216L26.432 7.52C25.52 9.952 23.376 11.536 21.184 12.304C21.056 12.048 20.784 11.648 20.576 11.44C22.592 10.832 24.592 9.376 25.344 7.424V7.264ZM20.608 9.408L21.296 8.736C23.28 9.632 25.728 11.088 26.96 12.16L26.224 12.944C25.04 11.856 22.608 10.352 20.608 9.408ZM19.92 12.256C18.48 13.536 15.808 14.864 13.152 15.648C13.04 15.392 12.816 15.024 12.624 14.8C15.328 14.08 18 12.784 19.376 11.456H20.352C22.176 12.944 24.976 14.096 27.424 14.608C27.2 14.864 26.96 15.264 26.832 15.52C24.48 14.928 21.6 13.648 19.92 12.256ZM16.32 14.8H24.432V18.48H16.32V17.744H23.296V15.536H16.32V14.8ZM15.696 14.8H16.832V20.384L15.696 20.48V14.8ZM25.04 17.76L25.92 18.32C24.912 18.96 23.632 19.632 22.624 20.048L21.968 19.568C22.96 19.12 24.288 18.336 25.04 17.76ZM20.128 18.032C21.312 19.472 24.016 20.192 27.152 20.4C26.928 20.608 26.672 21.008 26.544 21.296C23.296 20.992 20.576 20.08 19.232 18.304L20.128 18.032ZM16.32 16.272H23.68V16.944H16.32V16.272ZM17.888 13.504H22.064V14.24H17.888V13.504ZM13.888 20.144C15.584 20 18.208 19.76 20.752 19.488V20.4C18.352 20.656 15.808 20.928 14.032 21.104L13.888 20.144ZM36.864 9.472H42.352V10.56H36.864V9.472ZM37.216 6.56L38.4 6.736C37.904 9.488 37.072 12.016 35.888 13.664C35.68 13.488 35.136 13.136 34.848 12.992C36.064 11.472 36.816 9.072 37.216 6.56ZM39.232 9.904H39.808V12.672C39.808 13.936 40.304 18.208 43.472 20.272C43.264 20.528 42.896 21.024 42.72 21.312C40.224 19.648 39.376 16.48 39.216 15.168C39.04 16.464 38.112 19.584 35.424 21.312C35.264 21.04 34.928 20.56 34.704 20.336C38.128 18.208 38.624 14 38.624 12.672V9.904H39.232ZM42.048 9.472H42.24L42.432 9.408L43.232 9.632C42.928 11.088 42.448 12.736 41.968 13.776L41.008 13.44C41.424 12.496 41.808 10.928 42.048 9.696V9.472ZM31.872 9.28H32.944V11.184H31.872V9.28ZM29.792 10.752H30.88V19.76H29.792V10.752ZM30.432 12.896H34.416V13.76H30.432V12.896ZM28.624 19.52C30 19.168 32.08 18.56 34.08 17.952L34.224 18.944C32.416 19.552 30.528 20.176 29.04 20.656L28.624 19.52ZM32.688 16.704L33.664 16.336C34.272 17.36 34.928 18.704 35.184 19.536L34.144 19.984C33.904 19.136 33.28 17.728 32.688 16.704ZM30.432 10.752H34.96V15.968H30.432V15.072H33.872V11.648H30.432V10.752ZM31.616 6.576H32.256V6.832H32.624V7.152C31.92 8.384 30.768 10.048 28.992 11.408C28.832 11.152 28.512 10.768 28.272 10.608C29.888 9.424 31.008 7.84 31.616 6.576ZM31.936 6.576H32.8C33.776 7.424 34.976 8.64 35.584 9.44L34.736 10.24C34.176 9.472 33.072 8.176 32.16 7.376H31.936V6.576Z" fill="white"/>
</svg>
