<svg width="55" height="30" viewBox="0 0 55 30" fill="none" xmlns="http://www.w3.org/2000/svg">
<rect width="55" height="30" fill="black" fill-opacity="0.3"/>
<path d="M12.864 16.736H27.12V17.856H12.864V16.736ZM13.312 8.448H26.736V9.552H13.312V8.448ZM16.576 11.168H23.44V12.192H16.576V11.168ZM16.576 13.936H23.44V14.976H16.576V13.936ZM15.808 6.592H16.992V17.232H15.808V6.592ZM22.96 6.592H24.176V17.232H22.96V6.592ZM21.168 18.976L21.984 18.208C23.888 18.88 25.92 19.76 27.168 20.432L26.08 21.216C24.944 20.544 23.04 19.664 21.168 18.976ZM17.776 18.112L18.832 18.88C17.408 19.76 15.232 20.688 13.504 21.248C13.328 21.008 12.96 20.592 12.704 20.336C14.432 19.84 16.64 18.896 17.776 18.112ZM37.904 6.592H39.04V17.712H37.904V6.592ZM32.336 13.184L41.952 9.456L42.416 10.496L32.784 14.24L32.336 13.184ZM34.352 8.16H35.536V18.864C35.536 19.776 35.76 19.984 36.896 19.984C37.44 19.984 40.304 19.984 41.008 19.984C41.984 19.984 42.16 19.536 42.288 17.648C42.576 17.856 43.056 18.064 43.408 18.144C43.2 20.352 42.816 21.072 41.04 21.072C40.576 21.072 37.28 21.072 36.848 21.072C34.912 21.072 34.352 20.624 34.352 18.848V8.16ZM41.552 9.728H41.408L41.696 9.488L41.904 9.296L42.736 9.648L42.688 9.84C42.672 12.752 42.64 15.056 42.48 15.744C42.352 16.48 42.016 16.784 41.52 16.912C41.088 17.024 40.384 17.04 39.904 17.024C39.872 16.688 39.744 16.192 39.6 15.92C40.048 15.936 40.624 15.936 40.832 15.936C41.104 15.936 41.28 15.872 41.392 15.456C41.52 14.944 41.552 12.848 41.552 9.728ZM32.256 6.624L33.36 6.976C32.32 9.664 30.672 12.384 28.96 14.176C28.832 13.904 28.496 13.28 28.288 13.008C29.872 11.456 31.36 9.056 32.256 6.624ZM30.56 10.752L31.712 9.584L31.728 9.6V21.264H30.56V10.752Z" fill="white"/>
</svg>
