<svg width="107" height="114" viewBox="0 0 107 114" fill="none" xmlns="http://www.w3.org/2000/svg">
<g filter="url(#filter0_d_137_2240)">
<path d="M5.13486 6H46V12H4.75306C3.22535 10.5 4.37105 6.5 5.13486 6Z" fill="#9F3333"/>
<path d="M98 50H103V104C102 106.5 100 106 98 105V50Z" fill="#9F3333"/>
<path d="M5.5 5.99966L46.5 5.9997C46.5 5.9997 54 4.49967 60.5 10.4996C67 16.4996 100.276 43.3679 103 47.681V104.181C98.9708 88.8379 11 4.49958 5.5 5.99966Z" fill="#CD5151"/>
<path d="M5.5 5.99966L46.5 5.9997C46.5 5.9997 54 4.49967 60.5 10.4996C67 16.4996 100.276 43.3679 103 47.681V104.181C98.9708 88.8379 11 4.49958 5.5 5.99966Z" fill="url(#paint0_linear_137_2240)" fill-opacity="0.25"/>
<path d="M5.5 5.99966L46.5 5.9997C46.5 5.9997 54 4.49967 60.5 10.4996C67 16.4996 100.276 43.3679 103 47.681V104.181C98.9708 88.8379 11 4.49958 5.5 5.99966Z" fill="url(#paint1_linear_137_2240)" fill-opacity="0.35"/>
<path d="M5.5 5.99966L46.5 5.9997C46.5 5.9997 54 4.49967 60.5 10.4996C67 16.4996 100.276 43.3679 103 47.681V104.181C98.9708 88.8379 11 4.49958 5.5 5.99966Z" fill="url(#paint2_radial_137_2240)" fill-opacity="0.2"/>
<path d="M40.8774 23.2979L41.9308 22.1123L47.0283 21.8445C47.7644 21.8158 48.3505 21.7757 48.7865 21.7241C49.2259 21.6686 49.5697 21.5874 49.818 21.4806C50.0697 21.3698 50.2838 21.2151 50.4602 21.0165L50.4758 20.999C50.6902 20.7576 50.8262 20.4987 50.8837 20.2223C50.945 19.9494 50.9233 19.6758 50.8186 19.4016C50.7173 19.1235 50.5324 18.8651 50.2637 18.6264C49.9912 18.3843 49.6979 18.2282 49.3838 18.1582C49.0733 18.0843 48.7696 18.0967 48.473 18.1954C48.1797 18.2902 47.9138 18.4719 47.6751 18.7405L47.6491 18.7697L46.0197 17.322L46.0398 17.2876C46.5172 16.7503 47.0679 16.3931 47.692 16.2161C48.32 16.0425 48.9677 16.0467 49.6351 16.2286C50.3065 16.414 50.9497 16.78 51.5649 17.3266C52.145 17.842 52.5634 18.3984 52.82 18.9956C53.0806 19.5964 53.1728 20.1904 53.0968 20.7778C53.0247 21.3687 52.7725 21.9074 52.3401 22.3941L52.3245 22.4117C52.0408 22.7309 51.7 22.989 51.3022 23.1859C50.9077 23.3789 50.4052 23.5211 49.7945 23.6125C49.1838 23.7039 48.4104 23.7588 47.4744 23.7772L43.7556 23.8695L44.9136 23.5189L44.2286 24.2898L44.0306 23.5599L48.2181 27.2805L46.9571 28.6997L40.8774 23.2979ZM51.6243 33.233C50.9312 32.6173 50.4927 31.9072 50.3087 31.1027C50.132 30.2978 50.2034 29.445 50.5229 28.5445C50.8423 27.6439 51.405 26.74 52.2111 25.8328L52.2214 25.8211C53.0309 24.91 53.8623 24.2448 54.7156 23.8255C55.5724 23.4023 56.409 23.233 57.2257 23.3176C58.0462 23.4056 58.803 23.7575 59.496 24.3733C60.193 24.9925 60.6315 25.7026 60.8116 26.5036C60.9917 27.3046 60.9221 28.1554 60.6026 29.056C60.2867 29.9527 59.7239 30.8566 58.9144 31.7677L58.9041 31.7794C58.098 32.6866 57.2666 33.3518 56.4099 33.775C55.5532 34.1982 54.7147 34.3694 53.8947 34.2888C53.078 34.2042 52.3212 33.8523 51.6243 33.233ZM52.8645 31.8372C53.1993 32.1347 53.5888 32.2648 54.033 32.2275C54.4811 32.1937 54.9662 32.0045 55.4881 31.6601C56.014 31.3192 56.5589 30.8314 57.1228 30.1967L57.1331 30.1851C57.7005 29.5465 58.1208 28.948 58.394 28.3896C58.6746 27.8307 58.8036 27.3287 58.781 26.8836C58.7657 26.4381 58.5907 26.0666 58.2559 25.7691C57.9249 25.4751 57.5354 25.345 57.0873 25.3788C56.6466 25.4122 56.1632 25.5994 55.6374 25.9403C55.1188 26.2809 54.5759 26.7704 54.0086 27.4089L53.9982 27.4206C53.4343 28.0553 53.0121 28.652 52.7315 29.2109C52.4548 29.7733 52.3241 30.2772 52.3393 30.7227C52.3585 31.1716 52.5335 31.5432 52.8645 31.8372ZM62.0327 35.2802C61.4175 34.7336 61.1193 34.089 61.1382 33.3464C61.1644 32.6033 61.501 31.8677 62.1479 31.1396L62.1531 31.1338C62.8034 30.4018 63.4926 29.9829 64.2205 29.8772C64.9558 29.7711 65.631 29.9913 66.2462 30.5379C66.8652 31.0879 67.1634 31.7325 67.1406 32.4717C67.1213 33.207 66.7865 33.9407 66.1362 34.6727L66.131 34.6785C65.4841 35.4066 64.7932 35.8274 64.0584 35.9409C63.327 36.0505 62.6518 35.8303 62.0327 35.2802ZM62.8629 34.3458C63.1199 34.5741 63.4272 34.6242 63.7849 34.4961C64.1465 34.3714 64.5313 34.0794 64.9395 33.6199L64.9447 33.6141C65.3564 33.1508 65.6011 32.7342 65.6789 32.3644C65.7606 31.998 65.6729 31.7007 65.4159 31.4723C65.1628 31.2475 64.8573 31.1954 64.4991 31.3162C64.1449 31.4404 63.762 31.7342 63.3503 32.1975L63.3451 32.2033C62.9369 32.6628 62.6903 33.0776 62.6052 33.4479C62.5239 33.8216 62.6098 34.1209 62.8629 34.3458ZM59.946 40.2401L58.5969 39.0414L71.7556 35.6524L73.1047 36.851L59.946 40.2401ZM65.4496 45.3494C64.8344 44.8028 64.5362 44.1582 64.5551 43.4155C64.5813 42.6724 64.9179 41.9368 65.5648 41.2087L65.5699 41.2029C66.2203 40.4709 66.9094 40.0521 67.6374 39.9464C68.3726 39.8402 69.0479 40.0605 69.663 40.607C70.2821 41.1571 70.5803 41.8017 70.5575 42.5409C70.5382 43.2762 70.2034 44.0098 69.553 44.7418L69.5478 44.7477C68.9009 45.4757 68.2101 45.8965 67.4752 46.01C66.7438 46.1196 66.0686 45.8994 65.4496 45.3494ZM66.2798 44.4149C66.5368 44.6432 66.8441 44.6933 67.2018 44.5652C67.5633 44.4406 67.9482 44.1485 68.3564 43.6891L68.3616 43.6833C68.7733 43.2199 69.018 42.8033 69.0958 42.4335C69.1774 42.0671 69.0898 41.7698 68.8328 41.5415C68.5797 41.3166 68.2741 41.2646 67.916 41.3853C67.5618 41.5095 67.1789 41.8033 66.7672 42.2666L66.762 42.2725C66.3538 42.7319 66.1071 43.1468 66.022 43.517C65.9408 43.8908 66.0267 44.1901 66.2798 44.4149ZM74.9764 53.8347C74.3184 53.2501 73.8695 52.6144 73.6297 51.9276C73.3934 51.2369 73.3701 50.5299 73.5598 49.8067C73.753 49.0796 74.1592 48.3675 74.7784 47.6706L74.7888 47.6589C75.4046 46.9659 76.0623 46.4843 76.7621 46.2142C77.4619 45.9442 78.1667 45.8841 78.8765 46.0341C79.5936 46.1835 80.2793 46.5489 80.9334 47.13C81.5875 47.7112 82.0308 48.3454 82.2632 49.0327C82.4995 49.7234 82.523 50.434 82.3337 51.1646C82.1479 51.8913 81.7471 52.6011 81.1314 53.2942L81.121 53.3059C80.5018 54.0028 79.8425 54.49 79.1432 54.7674C78.4473 55.0409 77.7425 55.101 77.0288 54.9476C76.3224 54.7938 75.6383 54.4228 74.9764 53.8347ZM76.1647 52.4973C76.4684 52.7671 76.7963 52.9156 77.1483 52.9428C77.5004 52.97 77.8661 52.8838 78.2454 52.6843C78.6247 52.4848 79.0011 52.1748 79.3747 51.7543L79.3851 51.7427C79.7587 51.3222 80.0205 50.9138 80.1705 50.5176C80.324 50.1174 80.3646 49.7424 80.2922 49.3925C80.2273 49.0422 80.0449 48.7338 79.7451 48.4675C79.4453 48.2011 79.1157 48.0546 78.7562 48.0278C78.4042 48.0006 78.0385 48.0868 77.6592 48.2863C77.2834 48.4819 76.9087 48.7899 76.535 49.2104L76.5247 49.2221C76.1476 49.6465 75.8804 50.057 75.723 50.4537C75.5696 50.8538 75.5271 51.2271 75.5955 51.5735C75.6713 51.9195 75.861 52.2275 76.1647 52.4973ZM80.1534 58.1941L84.725 53.0488L83.6854 52.1251L84.827 50.8403L85.8666 51.7639L86.401 51.1624C86.9684 50.5238 87.5671 50.1989 88.1973 50.1875C88.8349 50.1756 89.541 50.5139 90.3159 51.2023C90.4911 51.358 90.6436 51.504 90.7734 51.6402C90.907 51.7799 91.0275 51.9148 91.1348 52.0449L90.123 53.1838C90.0788 53.1237 90.0137 53.0519 89.9276 52.9684C89.8489 52.8846 89.755 52.7942 89.646 52.6973C89.315 52.4033 89.014 52.2716 88.7428 52.3024C88.4751 52.3293 88.2167 52.4829 87.9676 52.7632L87.5369 53.248L88.8977 54.457L87.7561 55.7419L86.4303 54.564L81.8588 59.7093L80.1534 58.1941ZM85.0943 62.584L89.6659 57.4387L88.6263 56.515L89.7679 55.2302L90.8075 56.1538L91.3419 55.5523C91.9093 54.9137 92.508 54.5888 93.1382 54.5774C93.7758 54.5656 94.4819 54.9039 95.2568 55.5923C95.432 55.7479 95.5845 55.8939 95.7143 56.0301C95.8479 56.1698 95.9684 56.3047 96.0757 56.4349L95.0639 57.5737C95.0197 57.5136 94.9546 57.4418 94.8685 57.3584C94.7898 57.2745 94.6959 57.1841 94.5869 57.0872C94.2559 56.7932 93.9549 56.6616 93.6837 56.6923C93.416 56.7192 93.1576 56.8728 92.9085 57.1531L92.4778 57.6379L93.8386 58.8469L92.697 60.1318L91.3712 58.9539L86.7997 64.0992L85.0943 62.584Z" fill="white"/>
</g>
<defs>
<filter id="filter0_d_137_2240" x="0" y="0.818359" width="107" height="113.001" filterUnits="userSpaceOnUse" color-interpolation-filters="sRGB">
<feFlood flood-opacity="0" result="BackgroundImageFix"/>
<feColorMatrix in="SourceAlpha" type="matrix" values="0 0 0 0 0 0 0 0 0 0 0 0 0 0 0 0 0 0 127 0" result="hardAlpha"/>
<feOffset dy="4"/>
<feGaussianBlur stdDeviation="2"/>
<feComposite in2="hardAlpha" operator="out"/>
<feColorMatrix type="matrix" values="0 0 0 0 0 0 0 0 0 0 0 0 0 0 0 0 0 0 0.15 0"/>
<feBlend mode="normal" in2="BackgroundImageFix" result="effect1_dropShadow_137_2240"/>
<feBlend mode="normal" in="SourceGraphic" in2="effect1_dropShadow_137_2240" result="shape"/>
</filter>
<linearGradient id="paint0_linear_137_2240" x1="48.5" y1="1.18091" x2="48.5" y2="16.1809" gradientUnits="userSpaceOnUse">
<stop stop-color="#CD5151"/>
<stop offset="0.41" stop-color="#DF7E7E"/>
<stop offset="1" stop-color="#CD5151"/>
</linearGradient>
<linearGradient id="paint1_linear_137_2240" x1="96" y1="56.6809" x2="104.5" y2="56.6809" gradientUnits="userSpaceOnUse">
<stop stop-color="#CD5151"/>
<stop offset="0.41" stop-color="#DF7E7E"/>
<stop offset="1" stop-color="#CD5151"/>
</linearGradient>
<radialGradient id="paint2_radial_137_2240" cx="0" cy="0" r="1" gradientUnits="userSpaceOnUse" gradientTransform="translate(68 36.1809) rotate(-136.606) scale(37.8451 12.2903)">
<stop stop-color="#732C2C"/>
<stop offset="1" stop-color="#EF8E8E" stop-opacity="0.25"/>
</radialGradient>
</defs>
</svg>
