<svg width="70" height="70" viewBox="0 0 70 70" fill="none" xmlns="http://www.w3.org/2000/svg">
<circle cx="35" cy="35" r="35" fill="#3D3D3D" fill-opacity="0.6"/>
<path d="M27.164 49.944L27.836 50.676C25.664 51.312 22.112 51.636 19.196 51.756C19.172 51.528 19.064 51.168 18.98 50.964C21.836 50.832 25.34 50.508 27.164 49.944ZM18.992 53.328H28.352V54.192H18.992V53.328ZM18.188 56.148H29.024V57.024H18.188V56.148ZM23.144 51.216H24.08V59.712C24.08 60.348 23.888 60.624 23.432 60.768C22.976 60.912 22.196 60.936 20.924 60.924C20.864 60.672 20.696 60.264 20.552 60.024C21.548 60.06 22.508 60.048 22.772 60.036C23.048 60.036 23.144 59.952 23.144 59.7V51.216ZM31.388 57.18H38.576V57.792H31.388V57.18ZM31.412 55.704H39.092V59.28H31.412V58.62H38.204V56.352H31.412V55.704ZM34.484 56.028H35.348V59.652C35.348 60.06 35.492 60.144 36.26 60.144C36.62 60.144 38.468 60.144 38.936 60.144C39.584 60.144 39.692 59.928 39.752 58.716C39.956 58.86 40.292 58.98 40.544 59.028C40.412 60.492 40.136 60.864 38.996 60.864C38.684 60.864 36.512 60.864 36.212 60.864C34.868 60.864 34.484 60.624 34.484 59.64V56.028ZM30.944 55.704H31.808V59.904H30.944V55.704ZM30.608 50.436H39.38V51.144H30.608V50.436ZM31.352 53.184H33.896V53.76H31.352V53.184ZM31.112 54.42H33.908V54.984H31.112V54.42ZM36.032 54.42H38.912V54.984H36.032V54.42ZM36.032 53.184H38.624V53.76H36.032V53.184ZM34.52 50.712H35.396V55.296H34.52V50.712ZM29.912 51.876H40.1V54.216H39.248V52.536H30.728V54.216H29.912V51.876ZM43.712 54.804H49.22V55.5H43.712V54.804ZM41.924 53.136H50.54V53.916H42.812V60.984H41.924V53.136ZM50.108 53.136H50.996V59.88C50.996 60.384 50.888 60.648 50.504 60.792C50.144 60.936 49.532 60.948 48.596 60.948C48.536 60.708 48.368 60.336 48.236 60.108C48.968 60.144 49.652 60.132 49.844 60.132C50.048 60.12 50.108 60.06 50.108 59.868V53.136ZM44.624 56.46H48.68V59.4H44.624V58.704H47.852V57.144H44.624V56.46ZM44.204 56.46H45.02V60.12H44.204V56.46ZM42.392 50.976H46.328V51.744H42.392V50.976ZM47.024 50.976H51.68V51.744H47.024V50.976ZM42.608 49.872L43.484 50.088C43.04 51.372 42.32 52.656 41.6 53.484C41.432 53.34 41.048 53.088 40.832 52.98C41.576 52.212 42.224 51.048 42.608 49.872ZM47.336 49.872L48.2 50.076C47.792 51.312 47.084 52.476 46.34 53.232C46.172 53.088 45.8 52.836 45.584 52.704C46.352 52.02 46.976 50.976 47.336 49.872ZM43.028 51.516L43.748 51.216C44.108 51.696 44.516 52.356 44.672 52.776L43.916 53.124C43.76 52.68 43.376 52.02 43.028 51.516ZM48.02 51.528L48.776 51.216C49.232 51.684 49.736 52.344 49.964 52.788L49.16 53.136C48.968 52.692 48.476 52.02 48.02 51.528Z" fill="white"/>
<path d="M42.7778 12H27.2222C26.6331 12.0007 26.0682 12.2417 25.6516 12.6702C25.235 13.0987 25.0007 13.6797 25 14.2857V20.7619C25.001 21.2563 25.1569 21.7372 25.4445 22.1334L28.3333 26.0953V41.7143C28.334 42.3203 28.5684 42.9013 28.985 43.3298C29.4016 43.7583 29.9664 43.9993 30.5556 44H39.4444C40.0336 43.9993 40.5984 43.7583 41.0151 43.3298C41.4317 42.9013 41.666 42.3203 41.6667 41.7143L41.6665 26.0951L44.5558 22.1332C44.8432 21.737 44.999 21.2562 45 20.7619V14.2857C44.9993 13.6797 44.765 13.0987 44.3484 12.6702C43.9318 12.2417 43.3669 12.0007 42.7778 12ZM36.1111 31.4286C36.1111 31.7317 35.994 32.0224 35.7857 32.2367C35.5773 32.451 35.2947 32.5714 35 32.5714C34.7053 32.5714 34.4227 32.451 34.2143 32.2367C34.006 32.0224 33.8889 31.7317 33.8889 31.4286V26.8571C33.8889 26.554 34.006 26.2633 34.2143 26.049C34.4227 25.8347 34.7053 25.7143 35 25.7143C35.2947 25.7143 35.5773 25.8347 35.7857 26.049C35.994 26.2633 36.1111 26.554 36.1111 26.8571V31.4286ZM27.2216 17.7143L27.2209 14.2857H42.7778L42.7778 17.7143H27.2216Z" fill="white"/>
</svg>
