<svg width="124" height="29" viewBox="0 0 124 29" fill="none" xmlns="http://www.w3.org/2000/svg">
<path d="M9.78304 0H0V29H9.78304V0Z" fill="black"/>
<path d="M12.2288 0H10.7613V29H12.2288V0Z" fill="black"/>
<path d="M13.2071 0H14.6746V29H13.2071V0Z" fill="black"/>
<path d="M17.1203 0H15.6529V29H17.1203V0Z" fill="black"/>
<path d="M20.5444 0H22.7456V29H20.5444V0Z" fill="black"/>
<path d="M25.1913 0H23.7239V29H25.1913V0Z" fill="black"/>
<path d="M25.6805 0H27.1479V29H25.6805V0Z" fill="black"/>
<path d="M29.1045 0H27.6371V29H29.1045V0Z" fill="black"/>
<path d="M30.0828 0H31.5503V29H30.0828V0Z" fill="black"/>
<path d="M36.4418 0H32.5286V29H36.4418V0Z" fill="black"/>
<path d="M37.4201 0H41.3333V29H37.4201V0Z" fill="black"/>
<path d="M43.0454 0H41.8225V29H43.0454V0Z" fill="black"/>
<path d="M44.0237 0H45.2465V29H44.0237V0Z" fill="black"/>
<path d="M46.9586 0H45.7357V29H46.9586V0Z" fill="black"/>
<path d="M47.9369 0H51.3609V29H47.9369V0Z" fill="black"/>
<path d="M53.8067 0H52.3392V29H53.8067V0Z" fill="black"/>
<path d="M54.2959 0H55.7633V29H54.2959V0Z" fill="black"/>
<path d="M57.7199 0H56.2525V29H57.7199V0Z" fill="black"/>
<path d="M58.2091 0H60.4103V29H58.2091V0Z" fill="black"/>
<path d="M62.856 0H61.3886V29H62.856V0Z" fill="black"/>
<path d="M64.0789 0H65.5463V29H64.0789V0Z" fill="black"/>
<path d="M67.9921 0H66.5247V29H67.9921V0Z" fill="black"/>
<path d="M68.7258 0H71.4162V29H68.7258V0Z" fill="black"/>
<path d="M73.8619 0H72.1499V29H73.8619V0Z" fill="black"/>
<path d="M74.8402 0H80.9546V29H74.8402V0Z" fill="black"/>
<path d="M83.4004 0H82.1775V29H83.4004V0Z" fill="black"/>
<path d="M84.1341 0H85.357V29H84.1341V0Z" fill="black"/>
<path d="M88.7811 0H86.3353V29H88.7811V0Z" fill="black"/>
<path d="M89.5148 0H90.7377V29H89.5148V0Z" fill="black"/>
<path d="M92.4497 0H91.2268V29H92.4497V0Z" fill="black"/>
<path d="M92.9389 0H94.1617V29H92.9389V0Z" fill="black"/>
<path d="M97.8304 0H94.8955V29H97.8304V0Z" fill="black"/>
<path d="M98.5641 0H99.787V29H98.5641V0Z" fill="black"/>
<path d="M110.793 0H101.499V29H110.793V0Z" fill="black"/>
<path d="M112.016 0H113.483V29H112.016V0Z" fill="black"/>
<path d="M118.375 0H116.907V29H118.375V0Z" fill="black"/>
<path d="M119.353 0H120.821V29H119.353V0Z" fill="black"/>
<path d="M124 0H122.533V29H124V0Z" fill="black"/>
</svg>
