<svg width="55" height="30" viewBox="0 0 55 30" fill="none" xmlns="http://www.w3.org/2000/svg">
<path d="M18.096 16.304H27.36V17.392H18.096V16.304ZM22.208 8.224V10.784H25.248V8.224H22.208ZM21.12 7.232H26.384V11.792H21.12V7.232ZM19.024 8.064H20.096V14.928H19.024V8.064ZM19.584 13.104H26.032V16.832H24.88V14.176H19.584V13.104ZM21.984 14.912H23.152C22.832 18.064 21.968 20.208 18.304 21.28C18.192 21.024 17.888 20.592 17.664 20.384C21.04 19.472 21.744 17.632 21.984 14.912ZM23.232 16.784C23.856 18.544 25.264 19.792 27.44 20.24C27.168 20.48 26.832 20.96 26.688 21.28C24.352 20.656 22.912 19.168 22.208 16.96L23.232 16.784ZM12.64 9.872H17.552V10.992H12.64V9.872ZM14.832 6.576L15.984 6.688C15.408 9.872 14.496 14.16 13.824 16.816L12.832 16.272C13.472 13.856 14.336 9.6 14.832 6.576ZM13.344 15.664L14.048 14.816C15.696 15.968 17.68 17.632 18.576 18.8L17.808 19.792C16.928 18.576 14.992 16.832 13.344 15.664ZM17.136 9.872H17.344L17.552 9.84L18.24 9.936C17.872 16.176 16.32 19.552 13.504 21.296C13.328 21.008 13.024 20.576 12.768 20.32C15.296 18.928 16.816 15.568 17.136 10.112V9.872ZM28.896 15.712H43.104V16.784H28.896V15.712ZM35.344 14.224H36.56V21.248H35.344V14.224ZM34.8 16.128L35.792 16.576C34.336 18.512 31.728 20.224 29.392 21.072C29.2 20.768 28.848 20.304 28.576 20.064C30.912 19.344 33.488 17.824 34.8 16.128ZM37.12 16.16C38.416 17.824 40.976 19.28 43.408 19.936C43.152 20.176 42.784 20.64 42.608 20.96C40.176 20.16 37.568 18.528 36.112 16.64L37.12 16.16ZM34.72 11.728V13.488H37.232V11.728H34.72ZM34.72 9.088V10.816H37.232V9.088H34.72ZM33.68 8.144H38.288V14.432H33.68V8.144ZM35.552 6.56L36.752 6.752C36.496 7.472 36.224 8.24 35.984 8.752L35.04 8.544C35.232 7.984 35.456 7.136 35.552 6.56ZM29.008 9.68L29.536 8.912C30.352 9.52 31.312 10.416 31.728 11.024L31.168 11.904C30.752 11.264 29.808 10.336 29.008 9.68ZM31.92 12.032L32.72 11.776C33.2 12.672 33.664 13.872 33.808 14.608L32.96 14.944C32.832 14.176 32.384 12.944 31.92 12.032ZM32.32 8.896L33.264 9.264C32.416 10.848 31.28 12.784 30.352 14.016L29.568 13.648C30.496 12.4 31.664 10.352 32.32 8.896ZM31.072 6.672L32.032 7.024C31.552 8.064 30.976 9.28 30.48 10.08L29.68 9.728C30.144 8.912 30.752 7.6 31.072 6.672ZM28.864 13.552C29.952 13.456 31.456 13.28 33.04 13.104L33.056 13.968C31.584 14.208 30.16 14.4 28.992 14.592L28.864 13.552ZM38.192 9.552L38.8 8.816C39.632 9.52 40.608 10.528 41.04 11.2L40.416 12.032C40 11.328 39.04 10.288 38.192 9.552ZM41.168 11.904L42 11.6C42.56 12.576 43.12 13.888 43.296 14.704L42.4 15.072C42.24 14.224 41.712 12.912 41.168 11.904ZM41.568 8.88L42.512 9.264C41.664 10.848 40.496 12.8 39.536 14.048L38.752 13.68C39.696 12.416 40.912 10.352 41.568 8.88ZM40.4 6.624L41.376 6.976C40.88 8.032 40.288 9.232 39.776 10.032L38.976 9.68C39.456 8.864 40.08 7.552 40.4 6.624ZM38.256 13.552C39.376 13.456 40.896 13.312 42.48 13.168L42.496 14.048C41.024 14.24 39.568 14.432 38.4 14.592L38.256 13.552Z" fill="black" fill-opacity="0.6"/>
</svg>
